<svg width="88" height="40" viewBox="0 0 88 40" fill="none" xmlns="http://www.w3.org/2000/svg">
<path d="M31.7554 24.208C30.0807 24.208 28.6727 23.664 27.5314 22.576C26.4114 21.4773 25.8514 20.0853 25.8514 18.4C25.8514 16.7147 26.4114 15.328 27.5314 14.24C28.6407 13.1413 30.0487 12.592 31.7554 12.592C32.8967 12.592 33.91 12.8427 34.7954 13.344V15.12C33.8887 14.5333 32.8807 14.24 31.7714 14.24C30.598 14.24 29.6167 14.6347 28.8274 15.424C28.0487 16.2027 27.6594 17.1947 27.6594 18.4C27.6594 19.6053 28.054 20.6027 28.8434 21.392C29.6327 22.1707 30.63 22.56 31.8354 22.56C33.1154 22.56 34.182 22.2187 35.0354 21.536V23.312C34.0967 23.9093 33.0034 24.208 31.7554 24.208ZM38.9969 24.208C38.3889 24.208 37.9089 24.0427 37.5569 23.712C37.2049 23.3707 37.0289 22.848 37.0289 22.144V12.8H38.7569V21.664C38.7569 22.304 39.0449 22.624 39.6209 22.624C39.8769 22.624 40.0955 22.5707 40.2769 22.464V23.952C39.9462 24.1227 39.5195 24.208 38.9969 24.208ZM45.6795 22.688C46.4048 22.688 47.0182 22.4373 47.5195 21.936C48.0102 21.4453 48.2555 20.8213 48.2555 20.064C48.2555 19.3173 48.0102 18.6987 47.5195 18.208C47.0182 17.7067 46.4048 17.456 45.6795 17.456C44.9435 17.456 44.3248 17.7067 43.8235 18.208C43.3328 18.6987 43.0875 19.3173 43.0875 20.064C43.0875 20.8213 43.3328 21.4453 43.8235 21.936C44.3248 22.4373 44.9435 22.688 45.6795 22.688ZM45.6795 24.208C44.4208 24.208 43.3862 23.808 42.5755 23.008C41.7648 22.208 41.3595 21.2267 41.3595 20.064C41.3595 18.912 41.7648 17.936 42.5755 17.136C43.3862 16.336 44.4208 15.936 45.6795 15.936C46.9168 15.936 47.9462 16.336 48.7675 17.136C49.5782 17.936 49.9835 18.912 49.9835 20.064C49.9835 21.216 49.5782 22.1973 48.7675 23.008C47.9462 23.808 46.9168 24.208 45.6795 24.208ZM54.6883 24.208C53.2909 24.208 52.1976 23.9413 51.4083 23.408V21.776C52.3256 22.4053 53.3923 22.72 54.6083 22.72C55.1523 22.72 55.5736 22.64 55.8723 22.48C56.1816 22.3093 56.3363 22.08 56.3363 21.792C56.3363 21.536 56.1763 21.328 55.8563 21.168C55.7176 21.104 55.4669 21.024 55.1043 20.928L54.1283 20.688C53.2003 20.4533 52.5283 20.1547 52.1123 19.792C51.6963 19.4187 51.4883 18.9013 51.4883 18.24C51.4883 17.5253 51.7816 16.9653 52.3683 16.56C52.9549 16.144 53.7709 15.936 54.8163 15.936C56.0216 15.936 56.9869 16.1707 57.7123 16.64V18.224C56.7629 17.6907 55.8189 17.424 54.8802 17.424C54.3576 17.424 53.9576 17.504 53.6803 17.664C53.4029 17.8133 53.2643 18.0213 53.2643 18.288C53.2643 18.5333 53.4296 18.7413 53.7603 18.912C53.8029 18.9333 54.0536 19.0133 54.5123 19.152L55.4243 19.344C57.2163 19.7387 58.1123 20.5653 58.1123 21.824C58.1123 22.5387 57.7976 23.1147 57.1683 23.552C56.5389 23.9893 55.7123 24.208 54.6883 24.208ZM59.5158 20.064C59.5158 18.88 59.8891 17.8987 60.6358 17.12C61.3931 16.3307 62.3638 15.936 63.5477 15.936C64.3584 15.936 65.0464 16.1493 65.6118 16.576C66.7211 17.3653 67.2758 18.5493 67.2758 20.128V20.576H61.2598C61.3664 21.2373 61.6811 21.7547 62.2038 22.128C62.7371 22.5013 63.4091 22.688 64.2198 22.688C65.1158 22.688 65.9584 22.4533 66.7478 21.984V23.44C66.0224 23.952 65.0571 24.208 63.8518 24.208C62.6464 24.208 61.6171 23.824 60.7638 23.056C59.9318 22.288 59.5158 21.2907 59.5158 20.064ZM61.2758 19.264H65.5318C65.5104 18.7733 65.3238 18.3413 64.9718 17.968C64.6091 17.584 64.1078 17.392 63.4678 17.392C62.8598 17.392 62.3531 17.5733 61.9478 17.936C61.5531 18.288 61.3291 18.7307 61.2758 19.264Z" fill="black"/>
<path d="M85.0196 22.6869C84.8421 22.8644 84.5643 22.8805 84.3685 22.7353L84.3125 22.6869L79.9993 18.374L75.6862 22.6869C75.5087 22.8644 75.2309 22.8805 75.0352 22.7353L74.9791 22.6869C74.8016 22.5094 74.7855 22.2316 74.9307 22.0359L74.9791 21.9798L79.6458 17.3131C79.8233 17.1356 80.1011 17.1195 80.2968 17.2647L80.3529 17.3131L85.0196 21.9798C85.2148 22.1751 85.2148 22.4916 85.0196 22.6869Z" fill="black"/>
</svg>
