<svg width="88" height="40" viewBox="0 0 88 40" fill="none" xmlns="http://www.w3.org/2000/svg">
<path d="M27.3819 24H25.6539V16.144H27.3819V17.168C27.9792 16.3467 28.8432 15.936 29.9739 15.936C30.5819 15.936 31.1045 16.064 31.5419 16.32C31.9792 16.576 32.2832 16.9173 32.4539 17.344C32.7419 16.9173 33.1365 16.576 33.6379 16.32C34.1499 16.064 34.7099 15.936 35.3179 15.936C36.1925 15.936 36.8752 16.208 37.3659 16.752C37.8565 17.296 38.1019 18.0747 38.1019 19.088V24H36.3739V19.488C36.3739 18.1973 35.8405 17.552 34.7739 17.552C34.3579 17.552 33.9579 17.68 33.5739 17.936C33.2005 18.1813 32.9285 18.4907 32.7579 18.864V24H31.0299V19.488C31.0299 18.1973 30.4912 17.552 29.4139 17.552C29.0085 17.552 28.6139 17.6747 28.2299 17.92C27.8565 18.1547 27.5739 18.4533 27.3819 18.816V24ZM39.8439 20.064C39.8439 18.88 40.2172 17.8987 40.9639 17.12C41.7212 16.3307 42.6919 15.936 43.8759 15.936C44.6865 15.936 45.3745 16.1493 45.9399 16.576C47.0492 17.3653 47.6039 18.5493 47.6039 20.128V20.576H41.5879C41.6945 21.2373 42.0092 21.7547 42.5319 22.128C43.0652 22.5013 43.7372 22.688 44.5479 22.688C45.4439 22.688 46.2865 22.4533 47.0759 21.984V23.44C46.3505 23.952 45.3852 24.208 44.1799 24.208C42.9745 24.208 41.9452 23.824 41.0919 23.056C40.2599 22.288 39.8439 21.2907 39.8439 20.064ZM41.6039 19.264H45.8599C45.8385 18.7733 45.6519 18.3413 45.2999 17.968C44.9372 17.584 44.4359 17.392 43.7959 17.392C43.1879 17.392 42.6812 17.5733 42.2759 17.936C41.8812 18.288 41.6572 18.7307 41.6039 19.264ZM51.2881 18.832V24H49.5601V16.144H51.2881V17.184C52.0561 16.352 53.0161 15.936 54.1681 15.936C55.0961 15.936 55.8108 16.224 56.3121 16.8C56.8241 17.376 57.0801 18.176 57.0801 19.2V24H55.3521V19.584C55.3521 18.2293 54.7388 17.552 53.5121 17.552C53.0855 17.552 52.6641 17.6747 52.2481 17.92C51.8321 18.1547 51.5121 18.4587 51.2881 18.832ZM65.0363 21.312V16.144H66.7643V24H65.0363V22.96C64.2683 23.792 63.3083 24.208 62.1562 24.208C61.2283 24.208 60.5083 23.92 59.9963 23.344C59.4949 22.768 59.2443 21.968 59.2443 20.944V16.144H60.9723V20.56C60.9723 21.9147 61.5856 22.592 62.8123 22.592C63.2389 22.592 63.6603 22.4747 64.0763 22.24C64.4923 21.9947 64.8123 21.6853 65.0363 21.312Z" fill="black"/>
<path d="M74.9795 17.3131C75.157 17.1356 75.4347 17.1195 75.6305 17.2647L75.6866 17.3131L79.9997 21.626L84.3128 17.3131C84.4903 17.1356 84.7681 17.1195 84.9638 17.2647L85.0199 17.3131C85.1974 17.4906 85.2135 17.7684 85.0683 17.9641L85.0199 18.0202L80.3532 22.6869C80.1757 22.8644 79.8979 22.8805 79.7022 22.7353L79.6461 22.6869L74.9795 18.0202C74.7842 17.8249 74.7842 17.5084 74.9795 17.3131Z" fill="black"/>
</svg>
