<svg width="34" height="34" viewBox="0 0 34 34" fill="none" xmlns="http://www.w3.org/2000/svg">
<path d="M17.0007 0.333313C21.529 0.333313 22.094 0.34998 23.8707 0.433313C25.6457 0.516646 26.854 0.79498 27.9173 1.20831C29.0173 1.63165 29.944 2.20498 30.8707 3.12998C31.7181 3.96314 32.3739 4.97096 32.7923 6.08331C33.204 7.14498 33.484 8.35498 33.5673 10.13C33.6457 11.9066 33.6673 12.4716 33.6673 17C33.6673 21.5283 33.6507 22.0933 33.5673 23.87C33.484 25.645 33.204 26.8533 32.7923 27.9167C32.3751 29.0296 31.7192 30.0377 30.8707 30.87C30.0373 31.7172 29.0295 32.3729 27.9173 32.7917C26.8557 33.2033 25.6457 33.4833 23.8707 33.5667C22.094 33.645 21.529 33.6667 17.0007 33.6667C12.4723 33.6667 11.9073 33.65 10.1307 33.5667C8.35565 33.4833 7.14732 33.2033 6.08399 32.7917C4.9712 32.3741 3.9632 31.7182 3.13065 30.87C2.283 30.037 1.6272 29.0291 1.20898 27.9167C0.795651 26.855 0.517318 25.645 0.433984 23.87C0.355651 22.0933 0.333984 21.5283 0.333984 17C0.333984 12.4716 0.350651 11.9066 0.433984 10.13C0.517318 8.35331 0.795651 7.14665 1.20898 6.08331C1.62604 4.97028 2.28199 3.96218 3.13065 3.12998C3.96344 2.28203 4.97137 1.6262 6.08399 1.20831C7.14732 0.79498 8.35399 0.516646 10.1307 0.433313C11.9073 0.35498 12.4723 0.333313 17.0007 0.333313ZM17.0007 8.66665C14.7905 8.66665 12.6709 9.54462 11.1081 11.1074C9.54529 12.6702 8.66732 14.7898 8.66732 17C8.66732 19.2101 9.54529 21.3297 11.1081 22.8925C12.6709 24.4553 14.7905 25.3333 17.0007 25.3333C19.2108 25.3333 21.3304 24.4553 22.8932 22.8925C24.456 21.3297 25.334 19.2101 25.334 17C25.334 14.7898 24.456 12.6702 22.8932 11.1074C21.3304 9.54462 19.2108 8.66665 17.0007 8.66665ZM27.834 8.24998C27.834 7.69745 27.6145 7.16754 27.2238 6.77684C26.8331 6.38614 26.3032 6.16665 25.7507 6.16665C25.1981 6.16665 24.6682 6.38614 24.2775 6.77684C23.8868 7.16754 23.6673 7.69745 23.6673 8.24998C23.6673 8.80252 23.8868 9.33242 24.2775 9.72312C24.6682 10.1138 25.1981 10.3333 25.7507 10.3333C26.3032 10.3333 26.8331 10.1138 27.2238 9.72312C27.6145 9.33242 27.834 8.80252 27.834 8.24998ZM17.0007 12C18.3267 12 19.5985 12.5268 20.5362 13.4644C21.4739 14.4021 22.0007 15.6739 22.0007 17C22.0007 18.3261 21.4739 19.5978 20.5362 20.5355C19.5985 21.4732 18.3267 22 17.0007 22C15.6746 22 14.4028 21.4732 13.4651 20.5355C12.5274 19.5978 12.0007 18.3261 12.0007 17C12.0007 15.6739 12.5274 14.4021 13.4651 13.4644C14.4028 12.5268 15.6746 12 17.0007 12Z" fill="#838383"/>
</svg>
