<svg width="190" height="26" viewBox="0 0 190 26" fill="none" xmlns="http://www.w3.org/2000/svg">
<path fill-rule="evenodd" clip-rule="evenodd" d="M14.8228 23.5797L17.2932 21.0797L15.3726 19.364C11.8994 15.8492 11.8994 10.1508 15.3726 6.63603C18.8458 3.12132 24.477 3.12132 27.9502 6.63603L40.5278 19.364L43.3229 16.5355L30.7453 3.80761C25.7284 -1.2692 17.5945 -1.2692 12.5776 3.80761C7.56076 8.88443 7.56076 17.1156 12.5776 22.1924L14.8228 23.5797Z" fill="#838383"/>
<path fill-rule="evenodd" clip-rule="evenodd" d="M29.6457 3.07968L27.1752 5.57968L27.9502 6.63603C31.4234 10.1508 31.4234 15.8492 27.9502 19.364C24.477 22.8787 18.8458 22.8787 15.3726 19.364L2.79502 6.63603L0 9.46446L12.5776 22.1924C17.5945 27.2692 25.7284 27.2692 30.7452 22.1924C35.7621 17.1156 35.7621 8.88443 30.7453 3.80761L29.6457 3.07968Z" fill="#838383"/>
<path d="M61.5644 15.6522C61.7761 15.6522 61.968 15.6053 62.14 15.5116V17.1585C61.8489 17.3727 61.4321 17.4798 60.8897 17.4798C59.7782 17.4798 59.0968 17.0112 58.8454 16.074C57.959 17.0916 56.7616 17.6003 55.2532 17.6003C54.2079 17.6003 53.3347 17.3058 52.6334 16.7167C51.9454 16.1409 51.6014 15.3309 51.6014 14.2865C51.6014 13.2421 51.9785 12.4388 52.7327 11.8764C53.4736 11.3007 54.3998 11.0128 55.5112 11.0128C56.6888 11.0128 57.7274 11.2672 58.6271 11.776V11.2337C58.6271 9.8011 57.6745 9.08477 55.7692 9.08477C54.6578 9.08477 53.6324 9.37933 52.693 9.96846V8.06049C53.6588 7.49814 54.843 7.21697 56.2455 7.21697C57.6216 7.21697 58.7131 7.5517 59.5202 8.22116C60.3406 8.87724 60.7507 9.8011 60.7507 10.9927V14.6681C60.7507 14.976 60.8235 15.2171 60.969 15.3911C61.1278 15.5652 61.3263 15.6522 61.5644 15.6522ZM58.6271 14.5476V13.3426C57.8068 12.8739 56.9402 12.6396 56.0272 12.6396C55.3127 12.6396 54.7504 12.7735 54.3402 13.0413C53.9433 13.3091 53.7448 13.684 53.7448 14.166C53.7448 14.6748 53.9301 15.0631 54.3006 15.3309C54.6843 15.5986 55.2003 15.7325 55.8486 15.7325C56.3778 15.7325 56.8939 15.6254 57.3966 15.4112C57.8994 15.1836 58.3096 14.8957 58.6271 14.5476Z" fill="#838383"/>
<path d="M65.0756 14.648V9.38603H62.9917V7.47806H65.0756V4.60606H67.219V7.47806H70.2953V9.38603H67.219V14.0254C67.219 14.5744 67.3447 14.976 67.5961 15.2304C67.8475 15.4848 68.2312 15.612 68.7472 15.612C69.2633 15.612 69.7528 15.4915 70.2159 15.2505V17.1183C69.7528 17.4397 69.0317 17.6003 68.0526 17.6003C67.1264 17.6003 66.3987 17.3459 65.8695 16.8372C65.3402 16.3284 65.0756 15.5986 65.0756 14.648Z" fill="#838383"/>
<path d="M74.851 17.3393H72.7076V7.47806H74.851V8.76343C75.592 7.73246 76.6637 7.21697 78.0662 7.21697C78.8204 7.21697 79.4687 7.37764 80.0112 7.69898C80.5536 8.02032 80.9307 8.44878 81.1424 8.98435C81.4997 8.44878 81.9892 8.02032 82.6111 7.69898C83.2462 7.37764 83.9408 7.21697 84.695 7.21697C85.78 7.21697 86.6267 7.55839 87.2354 8.24125C87.844 8.9241 88.1483 9.90152 88.1483 11.1735V17.3393H86.0049V11.6756C86.0049 10.0555 85.3433 9.24544 84.0202 9.24544C83.5042 9.24544 83.008 9.40611 82.5317 9.72745C82.0686 10.0354 81.7312 10.4237 81.5195 10.8923V17.3393H79.3761V11.6756C79.3761 10.0555 78.7079 9.24544 77.3716 9.24544C76.8688 9.24544 76.3792 9.39942 75.9029 9.70737C75.4398 10.0019 75.0892 10.3768 74.851 10.8321V17.3393Z" fill="#838383"/>
<path d="M95.6677 15.6924C96.5675 15.6924 97.3282 15.3777 97.9501 14.7484C98.5587 14.1325 98.8631 13.3493 98.8631 12.3986C98.8631 11.4614 98.5587 10.6848 97.9501 10.0689C97.3282 9.43959 96.5675 9.12494 95.6677 9.12494C94.7548 9.12494 93.9874 9.43959 93.3655 10.0689C92.7569 10.6848 92.4526 11.4614 92.4526 12.3986C92.4526 13.3493 92.7569 14.1325 93.3655 14.7484C93.9874 15.3777 94.7548 15.6924 95.6677 15.6924ZM95.6677 17.6003C94.1065 17.6003 92.823 17.0982 91.8175 16.094C90.8119 15.0899 90.3091 13.858 90.3091 12.3986C90.3091 10.9526 90.8119 9.72746 91.8175 8.72326C92.823 7.71907 94.1065 7.21697 95.6677 7.21697C97.2025 7.21697 98.4794 7.71907 99.4982 8.72326C100.504 9.72746 101.007 10.9526 101.007 12.3986C101.007 13.8447 100.504 15.0765 99.4982 16.094C98.4794 17.0982 97.2025 17.6003 95.6677 17.6003Z" fill="#838383"/>
<path d="M106.842 17.6003C105.109 17.6003 103.753 17.2656 102.774 16.5961V14.5476C103.912 15.3376 105.235 15.7325 106.743 15.7325C107.418 15.7325 107.941 15.6321 108.311 15.4313C108.695 15.2171 108.887 14.9292 108.887 14.5677C108.887 14.2463 108.688 13.9852 108.291 13.7844C108.119 13.7041 107.808 13.6036 107.358 13.4831L106.148 13.1819C104.997 12.8873 104.163 12.5124 103.647 12.0572C103.131 11.5886 102.873 10.9392 102.873 10.109C102.873 9.21197 103.237 8.50903 103.965 8.00024C104.692 7.47806 105.704 7.21697 107.001 7.21697C108.496 7.21697 109.694 7.51153 110.593 8.10066V10.089C109.416 9.4195 108.245 9.08477 107.081 9.08477C106.432 9.08477 105.936 9.18519 105.592 9.38603C105.248 9.57348 105.076 9.83457 105.076 10.1693C105.076 10.4773 105.281 10.7383 105.691 10.9526C105.744 10.9794 106.055 11.0798 106.624 11.2538L107.755 11.4948C109.978 11.9902 111.09 13.0279 111.09 14.6078C111.09 15.5049 110.699 16.2279 109.919 16.7769C109.138 17.3259 108.113 17.6003 106.842 17.6003Z" fill="#838383"/>
<path d="M116.423 9.38603V17.3393H114.279V9.38603H112.453V7.47806H114.279V6.19269C114.279 5.24205 114.544 4.48556 115.073 3.92321C115.602 3.36086 116.357 3.07969 117.336 3.07969C118.182 3.07969 118.943 3.22027 119.618 3.50145V5.32908C118.996 5.08808 118.434 4.96757 117.931 4.96757C116.926 4.96757 116.423 5.50314 116.423 6.57428V7.47806H119.618V9.38603H116.423Z" fill="#838383"/>
<path d="M120.68 12.3986C120.68 10.9124 121.143 9.68059 122.069 8.70318C123.009 7.71237 124.213 7.21697 125.681 7.21697C126.687 7.21697 127.54 7.48475 128.242 8.02032C129.618 9.01113 130.306 10.4973 130.306 12.4789V13.0413H122.843C122.976 13.8714 123.366 14.5208 124.014 14.9894C124.676 15.4581 125.509 15.6924 126.515 15.6924C127.626 15.6924 128.672 15.3978 129.651 14.8087V16.6363C128.751 17.279 127.554 17.6003 126.058 17.6003C124.563 17.6003 123.287 17.1183 122.228 16.1543C121.196 15.1903 120.68 13.9384 120.68 12.3986ZM122.863 11.3944H128.142C128.116 10.7785 127.884 10.2362 127.448 9.76762C126.998 9.28561 126.376 9.0446 125.582 9.0446C124.828 9.0446 124.199 9.27222 123.697 9.72745C123.207 10.1693 122.929 10.725 122.863 11.3944Z" fill="#838383"/>
<path d="M134.876 17.3393H132.732V7.47806H134.876V9.18519C135.206 8.60945 135.703 8.14083 136.364 7.77932C137.026 7.40442 137.727 7.21697 138.468 7.21697C138.561 7.21697 138.627 7.22366 138.666 7.23705V9.40611C138.428 9.37933 138.23 9.36594 138.071 9.36594C137.343 9.36594 136.688 9.55339 136.106 9.92829C135.524 10.3032 135.114 10.7584 134.876 11.294V17.3393Z" fill="#838383"/>
<path d="M149.77 15.6522C149.982 15.6522 150.173 15.6053 150.345 15.5116V17.1585C150.054 17.3727 149.638 17.4798 149.095 17.4798C147.984 17.4798 147.302 17.0112 147.051 16.074C146.164 17.0916 144.967 17.6003 143.459 17.6003C142.413 17.6003 141.54 17.3058 140.839 16.7167C140.151 16.1409 139.807 15.3309 139.807 14.2865C139.807 13.2421 140.184 12.4388 140.938 11.8764C141.679 11.3007 142.605 11.0128 143.717 11.0128C144.894 11.0128 145.933 11.2672 146.833 11.776V11.2337C146.833 9.8011 145.88 9.08477 143.975 9.08477C142.863 9.08477 141.838 9.37933 140.898 9.96846V8.06049C141.864 7.49814 143.048 7.21697 144.451 7.21697C145.827 7.21697 146.919 7.5517 147.726 8.22116C148.546 8.87724 148.956 9.8011 148.956 10.9927V14.6681C148.956 14.976 149.029 15.2171 149.174 15.3911C149.333 15.5652 149.532 15.6522 149.77 15.6522ZM146.833 14.5476V13.3426C146.012 12.8739 145.146 12.6396 144.233 12.6396C143.518 12.6396 142.956 12.7735 142.546 13.0413C142.149 13.3091 141.95 13.684 141.95 14.166C141.95 14.6748 142.135 15.0631 142.506 15.3309C142.89 15.5986 143.406 15.7325 144.054 15.7325C144.583 15.7325 145.099 15.6254 145.602 15.4112C146.105 15.1836 146.515 14.8957 146.833 14.5476Z" fill="#838383"/>
<path d="M153.435 17.4999C153.038 17.4999 152.701 17.366 152.423 17.0982C152.158 16.8171 152.026 16.4756 152.026 16.074C152.026 15.6857 152.158 15.3576 152.423 15.0899C152.701 14.8087 153.038 14.6681 153.435 14.6681C153.806 14.6681 154.13 14.8087 154.408 15.0899C154.685 15.3576 154.824 15.6857 154.824 16.074C154.824 16.4756 154.685 16.8171 154.408 17.0982C154.143 17.366 153.819 17.4999 153.435 17.4999Z" fill="#838383"/>
<path d="M160.897 17.6003C159.164 17.6003 157.808 17.2656 156.829 16.5961V14.5476C157.967 15.3376 159.29 15.7325 160.798 15.7325C161.473 15.7325 161.996 15.6321 162.366 15.4313C162.75 15.2171 162.942 14.9292 162.942 14.5677C162.942 14.2463 162.743 13.9852 162.346 13.7844C162.174 13.7041 161.863 13.6036 161.413 13.4831L160.203 13.1819C159.052 12.8873 158.218 12.5124 157.702 12.0572C157.186 11.5886 156.928 10.9392 156.928 10.109C156.928 9.21197 157.292 8.50903 158.02 8.00024C158.747 7.47806 159.76 7.21697 161.056 7.21697C162.551 7.21697 163.749 7.51153 164.648 8.10066V10.089C163.471 9.4195 162.3 9.08477 161.136 9.08477C160.487 9.08477 159.991 9.18519 159.647 9.38603C159.303 9.57348 159.131 9.83457 159.131 10.1693C159.131 10.4773 159.336 10.7383 159.746 10.9526C159.799 10.9794 160.11 11.0798 160.679 11.2538L161.81 11.4948C164.033 11.9902 165.145 13.0279 165.145 14.6078C165.145 15.5049 164.754 16.2279 163.974 16.7769C163.193 17.3259 162.168 17.6003 160.897 17.6003Z" fill="#838383"/>
<path d="M173.197 7.21697C174.573 7.21697 175.704 7.71907 176.591 8.72326C177.477 9.71407 177.92 10.9459 177.92 12.4187C177.92 13.8781 177.477 15.1032 176.591 16.094C175.704 17.0982 174.573 17.6003 173.197 17.6003C171.702 17.6003 170.544 17.0648 169.724 15.9936V21.356H167.58V7.47806H169.724V8.82368C170.544 7.75254 171.702 7.21697 173.197 7.21697ZM172.621 9.12494C171.999 9.12494 171.43 9.2923 170.914 9.62704C170.398 9.94838 170.002 10.3701 169.724 10.8923V13.9451C170.002 14.4539 170.398 14.8756 170.914 15.2104C171.444 15.5317 172.013 15.6924 172.621 15.6924C173.521 15.6924 174.269 15.3777 174.864 14.7484C175.459 14.1057 175.757 13.3292 175.757 12.4187C175.757 11.4948 175.459 10.7183 174.864 10.089C174.269 9.44628 173.521 9.12494 172.621 9.12494Z" fill="#838383"/>
<path d="M189.424 15.6522C189.636 15.6522 189.828 15.6053 190 15.5116V17.1585C189.709 17.3727 189.292 17.4798 188.75 17.4798C187.638 17.4798 186.957 17.0112 186.705 16.074C185.819 17.0916 184.622 17.6003 183.113 17.6003C182.068 17.6003 181.195 17.3058 180.493 16.7167C179.805 16.1409 179.461 15.3309 179.461 14.2865C179.461 13.2421 179.839 12.4388 180.593 11.8764C181.334 11.3007 182.26 11.0128 183.371 11.0128C184.549 11.0128 185.587 11.2672 186.487 11.776V11.2337C186.487 9.8011 185.534 9.08477 183.629 9.08477C182.518 9.08477 181.492 9.37933 180.553 9.96846V8.06049C181.519 7.49814 182.703 7.21697 184.106 7.21697C185.482 7.21697 186.573 7.5517 187.38 8.22116C188.201 8.87724 188.611 9.8011 188.611 10.9927V14.6681C188.611 14.976 188.684 15.2171 188.829 15.3911C188.988 15.5652 189.186 15.6522 189.424 15.6522ZM186.487 14.5476V13.3426C185.667 12.8739 184.8 12.6396 183.887 12.6396C183.173 12.6396 182.61 12.7735 182.2 13.0413C181.803 13.3091 181.605 13.684 181.605 14.166C181.605 14.6748 181.79 15.0631 182.161 15.3309C182.544 15.5986 183.06 15.7325 183.709 15.7325C184.238 15.7325 184.754 15.6254 185.257 15.4112C185.759 15.1836 186.17 14.8957 186.487 14.5476Z" fill="#838383"/>
</svg>
