<svg width="106" height="106" viewBox="0 0 106 106" fill="none" xmlns="http://www.w3.org/2000/svg">
<rect width="106" height="106" rx="53" fill="white"/>
<path d="M38.4396 30H37.8476V24.4H42.2396V30H41.6476V24.936H38.4396V30Z" fill="black"/>
<path d="M44.4083 30H43.8163V24.4H46.1683C46.723 24.4 47.1603 24.5413 47.4803 24.824C47.8003 25.1067 47.9603 25.4827 47.9603 25.952C47.9603 26.432 47.8003 26.816 47.4803 27.104C47.1603 27.3867 46.723 27.528 46.1683 27.528H44.4083V30ZM44.4083 24.936V26.992H46.1283C46.523 26.992 46.8296 26.904 47.0483 26.728C47.267 26.5467 47.3763 26.2933 47.3763 25.968C47.3763 25.6373 47.267 25.384 47.0483 25.208C46.835 25.0267 46.5283 24.936 46.1283 24.936H44.4083Z" fill="black"/>
<path d="M49.6326 30H49.1366V24.4H49.7206V29.008L53.2006 24.4H53.7206V30H53.1366V25.376L49.6326 30Z" fill="black"/>
<path d="M56.7489 30.096C56.0022 30.096 55.3729 29.952 54.8609 29.664V29.056C55.4102 29.3813 56.0102 29.544 56.6609 29.544C57.1942 29.544 57.6155 29.4373 57.9249 29.224C58.2395 29.0053 58.3969 28.7147 58.3969 28.352C58.3969 28.0267 58.2529 27.76 57.9649 27.552C57.6769 27.344 57.3009 27.24 56.8369 27.24H56.1489V26.704H56.9009C57.2955 26.704 57.6022 26.624 57.8209 26.464C58.0449 26.2987 58.1569 26.0693 58.1569 25.776C58.1569 25.488 58.0315 25.264 57.7809 25.104C57.5302 24.9387 57.1995 24.856 56.7889 24.856C56.2395 24.856 55.6849 24.9867 55.1249 25.248V24.688C55.6742 24.432 56.2369 24.304 56.8129 24.304C57.3782 24.304 57.8395 24.4347 58.1969 24.696C58.5595 24.9627 58.7409 25.312 58.7409 25.744C58.7409 26.0747 58.6449 26.3413 58.4529 26.544C58.2662 26.7413 58.0582 26.8747 57.8289 26.944C58.1382 27.04 58.4102 27.208 58.6449 27.448C58.8849 27.6773 59.0049 27.992 59.0049 28.392C59.0049 28.888 58.8022 29.296 58.3969 29.616C57.9862 29.936 57.4369 30.096 56.7489 30.096Z" fill="black"/>
<path d="M64.2607 30H60.3007V24.4H64.1407V24.936H60.8927V26.728H63.5567V27.264H60.8927V29.464H64.2607V30Z" fill="black"/>
<path d="M66.0099 30H65.4179V24.4H67.7699C68.3245 24.4 68.7619 24.5413 69.0819 24.824C69.4019 25.1067 69.5619 25.4827 69.5619 25.952C69.5619 26.432 69.4019 26.816 69.0819 27.104C68.7619 27.3867 68.3245 27.528 67.7699 27.528H66.0099V30ZM66.0099 24.936V26.992H67.7299C68.1245 26.992 68.4312 26.904 68.6499 26.728C68.8685 26.5467 68.9779 26.2933 68.9779 25.968C68.9779 25.6373 68.8685 25.384 68.6499 25.208C68.4365 25.0267 68.1299 24.936 67.7299 24.936H66.0099Z" fill="black"/>
<path d="M47.4345 87H43.6185V86.56L45.5065 84.76C45.9225 84.3653 46.2132 84.048 46.3785 83.808C46.5492 83.5573 46.6345 83.2773 46.6345 82.968C46.6345 82.6373 46.5172 82.3707 46.2825 82.168C46.0478 81.96 45.7412 81.856 45.3625 81.856C44.7705 81.856 44.2318 82.1067 43.7465 82.608V81.944C44.2212 81.5173 44.7785 81.304 45.4185 81.304C45.9358 81.304 46.3652 81.4507 46.7065 81.744C47.0532 82.0427 47.2265 82.4267 47.2265 82.896C47.2265 83.2693 47.1332 83.6107 46.9465 83.92C46.7598 84.224 46.4398 84.5893 45.9865 85.016L44.4825 86.464H47.4345V87Z" fill="black"/>
<path d="M48.4041 84.2C48.4041 83.3787 48.6147 82.6933 49.0361 82.144C49.4627 81.584 50.0174 81.304 50.7001 81.304C51.3774 81.304 51.9294 81.5813 52.3561 82.136C52.7774 82.6853 52.9881 83.3733 52.9881 84.2C52.9881 85.0267 52.7774 85.7147 52.3561 86.264C51.9294 86.8187 51.3774 87.096 50.7001 87.096C50.0174 87.096 49.4627 86.8187 49.0361 86.264C48.6147 85.7147 48.4041 85.0267 48.4041 84.2ZM52.4041 84.2C52.4041 83.5333 52.2441 82.976 51.9241 82.528C51.6041 82.08 51.1961 81.856 50.7001 81.856C50.2041 81.856 49.7961 82.08 49.4761 82.528C49.1561 82.976 48.9961 83.5333 48.9961 84.2C48.9961 84.8667 49.1534 85.4267 49.4681 85.88C49.7881 86.3227 50.1987 86.544 50.7001 86.544C51.2014 86.544 51.6094 86.3227 51.9241 85.88C52.2441 85.432 52.4041 84.872 52.4041 84.2Z" fill="black"/>
<path d="M57.7001 87H53.8841V86.56L55.7721 84.76C56.1881 84.3653 56.4788 84.048 56.6441 83.808C56.8148 83.5573 56.9001 83.2773 56.9001 82.968C56.9001 82.6373 56.7828 82.3707 56.5481 82.168C56.3135 81.96 56.0068 81.856 55.6281 81.856C55.0361 81.856 54.4975 82.1067 54.0121 82.608V81.944C54.4868 81.5173 55.0441 81.304 55.6841 81.304C56.2015 81.304 56.6308 81.4507 56.9721 81.744C57.3188 82.0427 57.4921 82.4267 57.4921 82.896C57.4921 83.2693 57.3988 83.6107 57.2121 83.92C57.0255 84.224 56.7055 84.5893 56.2521 85.016L54.7481 86.464H57.7001V87Z" fill="black"/>
<path d="M62.3017 87H58.4857V86.56L60.3737 84.76C60.7897 84.3653 61.0804 84.048 61.2457 83.808C61.4164 83.5573 61.5017 83.2773 61.5017 82.968C61.5017 82.6373 61.3844 82.3707 61.1497 82.168C60.915 81.96 60.6084 81.856 60.2297 81.856C59.6377 81.856 59.099 82.1067 58.6137 82.608V81.944C59.0884 81.5173 59.6457 81.304 60.2857 81.304C60.803 81.304 61.2324 81.4507 61.5737 81.744C61.9204 82.0427 62.0937 82.4267 62.0937 82.896C62.0937 83.2693 62.0004 83.6107 61.8137 83.92C61.627 84.224 61.307 84.5893 60.8537 85.016L59.3497 86.464H62.3017V87Z" fill="black"/>
<path d="M12.8996 46.056H11.9896L8.60156 36.2H9.74956L12.4796 44.362L15.0136 36.158H15.8536L18.4016 44.362L21.1176 36.2H22.2376L18.8636 46.056H17.9536L15.4336 37.964L12.8996 46.056Z" fill="black"/>
<path d="M23.5315 40.12C24.2128 39.42 25.0901 39.07 26.1635 39.07C27.2368 39.07 28.1141 39.42 28.7955 40.12C29.4768 40.8013 29.8175 41.6367 29.8175 42.626C29.8175 43.6153 29.4768 44.4507 28.7955 45.132C28.1048 45.8227 27.2275 46.168 26.1635 46.168C25.0995 46.168 24.2221 45.8227 23.5315 45.132C22.8501 44.4507 22.5095 43.6153 22.5095 42.626C22.5095 41.6367 22.8501 40.8013 23.5315 40.12ZM28.7815 42.626C28.7815 41.8793 28.5341 41.2493 28.0395 40.736C27.5448 40.232 26.9195 39.98 26.1635 39.98C25.4075 39.98 24.7821 40.232 24.2875 40.736C23.7928 41.2493 23.5455 41.8793 23.5455 42.626C23.5455 43.3633 23.7928 43.9887 24.2875 44.502C24.7821 45.006 25.4075 45.258 26.1635 45.258C26.9195 45.258 27.5448 45.006 28.0395 44.502C28.5341 43.9887 28.7815 43.3633 28.7815 42.626Z" fill="black"/>
<path d="M32.7028 46H31.6948V39.238H32.7028V40.526C32.9548 40.0873 33.3281 39.7373 33.8228 39.476C34.3174 39.2053 34.8401 39.07 35.3908 39.07V40.092C35.0828 40.092 34.8028 40.134 34.5508 40.218C34.1214 40.33 33.7434 40.526 33.4168 40.806C33.0901 41.0767 32.8521 41.3847 32.7028 41.73V46Z" fill="black"/>
<path d="M38.4167 46.168C37.9501 46.168 37.5721 46.0327 37.2827 45.762C37.0027 45.4913 36.8627 45.0713 36.8627 44.502V36.2H37.8708V44.264C37.8708 44.9267 38.1648 45.258 38.7528 45.258C38.9861 45.258 39.2054 45.1973 39.4107 45.076V45.972C39.1681 46.1027 38.8367 46.168 38.4167 46.168Z" fill="black"/>
<path d="M46.4806 40.316V36.2H47.4886V46H46.4806V44.922C45.846 45.7527 44.9733 46.168 43.8626 46.168C42.864 46.168 42.0473 45.8227 41.4126 45.132C40.778 44.4413 40.4606 43.606 40.4606 42.626C40.4606 41.6367 40.778 40.7967 41.4126 40.106C42.0473 39.4153 42.864 39.07 43.8626 39.07C44.9733 39.07 45.846 39.4853 46.4806 40.316ZM46.4806 43.732V41.506C46.2846 41.058 45.9673 40.694 45.5286 40.414C45.09 40.1247 44.614 39.98 44.1006 39.98C43.3446 39.98 42.724 40.2367 42.2386 40.75C41.744 41.2633 41.4966 41.8887 41.4966 42.626C41.4966 43.3633 41.744 43.9887 42.2386 44.502C42.7333 45.006 43.354 45.258 44.1006 45.258C44.6046 45.258 45.076 45.118 45.5146 44.838C45.9533 44.5487 46.2753 44.18 46.4806 43.732Z" fill="black"/>
<path d="M60.2621 46H53.7521V36.2H54.7881V45.062H60.2621V46Z" fill="black"/>
<path d="M66.9799 43.802V39.238H67.9879V46H66.9799V44.964C66.2613 45.7667 65.3606 46.168 64.2779 46.168C63.4473 46.168 62.8079 45.9253 62.3599 45.44C61.9213 44.9453 61.7019 44.25 61.7019 43.354V39.238H62.7099V43.13C62.7099 44.5207 63.3493 45.216 64.6279 45.216C65.0946 45.216 65.5426 45.076 65.9719 44.796C66.4293 44.4973 66.7653 44.166 66.9799 43.802Z" fill="black"/>
<path d="M70.8065 46H69.6445L72.4865 42.43L69.9805 39.238H71.1705L73.1025 41.646L75.0345 39.238H76.2105L73.6905 42.402L76.5325 46H75.3425L73.0885 43.172L70.8065 46Z" fill="black"/>
<path d="M83.2905 43.802V39.238H84.2985V46H83.2905V44.964C82.5718 45.7667 81.6711 46.168 80.5885 46.168C79.7578 46.168 79.1185 45.9253 78.6705 45.44C78.2318 44.9453 78.0125 44.25 78.0125 43.354V39.238H79.0205V43.13C79.0205 44.5207 79.6598 45.216 80.9385 45.216C81.4051 45.216 81.8531 45.076 82.2825 44.796C82.7398 44.4973 83.0758 44.166 83.2905 43.802Z" fill="black"/>
<path d="M87.6911 46H86.6831V39.238H87.6911V40.526C87.9431 40.0873 88.3164 39.7373 88.8111 39.476C89.3057 39.2053 89.8284 39.07 90.3791 39.07V40.092C90.0711 40.092 89.7911 40.134 89.5391 40.218C89.1097 40.33 88.7317 40.526 88.4051 40.806C88.0784 41.0767 87.8404 41.3847 87.6911 41.73V46Z" fill="black"/>
<path d="M92.7486 48.856C92.2632 48.856 91.9039 48.7907 91.6706 48.66V47.722C91.9599 47.8713 92.2679 47.946 92.5946 47.946C93.0052 47.946 93.3599 47.7733 93.6586 47.428C93.9572 47.092 94.2699 46.532 94.5966 45.748L91.5866 39.238H92.7066L95.1006 44.558L97.4246 39.238H98.5166L95.1706 46.756C94.5639 48.156 93.7566 48.856 92.7486 48.856Z" fill="black"/>
<path d="M17.3985 60.168C16.6892 60.168 16.0078 60.0747 15.3545 59.888C14.7105 59.692 14.1832 59.44 13.7725 59.132V57.97C14.1645 58.306 14.6732 58.5953 15.2985 58.838C15.9705 59.0807 16.6472 59.202 17.3285 59.202C18.1032 59.202 18.7378 59.034 19.2325 58.698C19.7272 58.362 19.9745 57.914 19.9745 57.354C20.0305 56.8313 19.7598 56.388 19.1625 56.024C19.0412 55.9307 18.8452 55.8373 18.5745 55.744L17.9585 55.534C17.9305 55.5247 17.8745 55.5107 17.7905 55.492C17.7065 55.464 17.6132 55.436 17.5105 55.408C17.4172 55.3707 17.3192 55.338 17.2165 55.31C16.6378 55.142 16.2925 55.0393 16.1805 55.002C15.8818 54.8993 15.5925 54.7827 15.3125 54.652C15.0045 54.5027 14.7618 54.3393 14.5845 54.162C14.1738 53.7327 13.9685 53.2007 13.9685 52.566C13.9685 51.8287 14.2672 51.222 14.8645 50.746C15.4618 50.27 16.2925 50.032 17.3565 50.032C18.5325 50.032 19.5498 50.3027 20.4085 50.844V51.908C19.4378 51.3013 18.4298 50.998 17.3845 50.998C16.6285 50.998 16.0452 51.1473 15.6345 51.446C15.2238 51.7447 15.0185 52.1273 15.0185 52.594C14.9625 52.9673 15.1725 53.336 15.6485 53.7C15.7232 53.7653 15.8772 53.84 16.1105 53.924L16.5865 54.106L17.1885 54.274L17.7765 54.442C18.2898 54.6007 18.6118 54.7033 18.7425 54.75C19.0132 54.8433 19.2978 54.9693 19.5965 55.128C19.9045 55.2867 20.1565 55.464 20.3525 55.66C20.8098 56.08 21.0385 56.64 21.0385 57.34C21.0385 58.2173 20.6838 58.908 19.9745 59.412C19.2745 59.916 18.4158 60.168 17.3985 60.168Z" fill="black"/>
<path d="M24.0895 58.922V62.8H23.0815V53.238H24.0895V54.316C24.7242 53.4853 25.5968 53.07 26.7075 53.07C27.7062 53.07 28.5228 53.4153 29.1575 54.106C29.7922 54.7967 30.1095 55.632 30.1095 56.612C30.1095 57.6013 29.7922 58.4413 29.1575 59.132C28.5228 59.8227 27.7062 60.168 26.7075 60.168C25.5968 60.168 24.7242 59.7527 24.0895 58.922ZM24.0895 55.506V57.732C24.2855 58.18 24.6028 58.5487 25.0415 58.838C25.4802 59.118 25.9562 59.258 26.4695 59.258C27.2255 59.258 27.8462 59.006 28.3315 58.502C28.8262 57.9793 29.0735 57.3493 29.0735 56.612C29.0735 55.8747 28.8262 55.2493 28.3315 54.736C27.8462 54.232 27.2255 53.98 26.4695 53.98C25.9655 53.98 25.4942 54.1247 25.0555 54.414C24.6168 54.694 24.2948 55.058 24.0895 55.506Z" fill="black"/>
<path d="M34.2639 59.258C34.7306 59.258 35.1739 59.1507 35.5939 58.936C36.0139 58.7213 36.3546 58.4507 36.6159 58.124V57.186C35.9252 56.738 35.1926 56.514 34.4179 56.514C33.8019 56.514 33.3119 56.6353 32.9479 56.878C32.5932 57.1207 32.4159 57.452 32.4159 57.872C32.4159 58.3107 32.5886 58.6513 32.9339 58.894C33.2792 59.1367 33.7226 59.258 34.2639 59.258ZM33.9839 60.168C33.2652 60.168 32.6539 59.972 32.1499 59.58C31.6552 59.1693 31.4079 58.6187 31.4079 57.928C31.4079 57.2467 31.6692 56.7007 32.1919 56.29C32.7146 55.8887 33.3772 55.688 34.1799 55.688C35.0572 55.688 35.8692 55.9073 36.6159 56.346V55.674C36.6159 54.5447 35.8739 53.98 34.3899 53.98C33.5966 53.98 32.8592 54.2087 32.1779 54.666V53.686C32.8406 53.2753 33.6479 53.07 34.5999 53.07C35.5239 53.07 36.2566 53.2893 36.7979 53.728C37.3486 54.1573 37.6239 54.7733 37.6239 55.576V58.362C37.6239 58.6233 37.6799 58.8287 37.7919 58.978C37.9132 59.1273 38.0719 59.202 38.2679 59.202C38.4172 59.202 38.5479 59.174 38.6599 59.118V59.902C38.5106 60.0047 38.2866 60.056 37.9879 60.056C37.6519 60.056 37.3672 59.9673 37.1339 59.79C36.9099 59.6033 36.7699 59.3327 36.7139 58.978C36.0326 59.7713 35.1226 60.168 33.9839 60.168Z" fill="black"/>
<path d="M44.2938 60H43.2158L47.5838 50.144H48.5498L52.9318 60H51.8398L50.6218 57.298H45.4838L44.2938 60ZM48.0598 51.446L45.8338 56.388H50.2858L48.0598 51.446Z" fill="black"/>
<path d="M56.749 60.042H55.867L53.445 53.238H54.481L56.371 58.502L58.219 53.21H59.073L60.935 58.502L62.811 53.238H63.833L61.411 60.042H60.529L58.625 54.736L56.749 60.042Z" fill="black"/>
<path d="M67.8557 59.258C68.3224 59.258 68.7657 59.1507 69.1857 58.936C69.6057 58.7213 69.9464 58.4507 70.2077 58.124V57.186C69.517 56.738 68.7844 56.514 68.0097 56.514C67.3937 56.514 66.9037 56.6353 66.5397 56.878C66.185 57.1207 66.0077 57.452 66.0077 57.872C66.0077 58.3107 66.1804 58.6513 66.5257 58.894C66.871 59.1367 67.3144 59.258 67.8557 59.258ZM67.5757 60.168C66.857 60.168 66.2457 59.972 65.7417 59.58C65.247 59.1693 64.9997 58.6187 64.9997 57.928C64.9997 57.2467 65.261 56.7007 65.7837 56.29C66.3064 55.8887 66.969 55.688 67.7717 55.688C68.649 55.688 69.461 55.9073 70.2077 56.346V55.674C70.2077 54.5447 69.4657 53.98 67.9817 53.98C67.1884 53.98 66.451 54.2087 65.7697 54.666V53.686C66.4324 53.2753 67.2397 53.07 68.1917 53.07C69.1157 53.07 69.8484 53.2893 70.3897 53.728C70.9404 54.1573 71.2157 54.7733 71.2157 55.576V58.362C71.2157 58.6233 71.2717 58.8287 71.3837 58.978C71.505 59.1273 71.6637 59.202 71.8597 59.202C72.009 59.202 72.1397 59.174 72.2517 59.118V59.902C72.1024 60.0047 71.8784 60.056 71.5797 60.056C71.2437 60.056 70.959 59.9673 70.7257 59.79C70.5017 59.6033 70.3617 59.3327 70.3057 58.978C69.6244 59.7713 68.7144 60.168 67.5757 60.168Z" fill="black"/>
<path d="M74.8942 60H73.8862V53.238H74.8942V54.526C75.1462 54.0873 75.5195 53.7373 76.0142 53.476C76.5089 53.2053 77.0315 53.07 77.5822 53.07V54.092C77.2742 54.092 76.9942 54.134 76.7422 54.218C76.3129 54.33 75.9349 54.526 75.6082 54.806C75.2815 55.0767 75.0435 55.3847 74.8942 55.73V60Z" fill="black"/>
<path d="M84.5842 54.316V50.2H85.5922V60H84.5842V58.922C83.9495 59.7527 83.0768 60.168 81.9662 60.168C80.9675 60.168 80.1508 59.8227 79.5162 59.132C78.8815 58.4413 78.5642 57.606 78.5642 56.626C78.5642 55.6367 78.8815 54.7967 79.5162 54.106C80.1508 53.4153 80.9675 53.07 81.9662 53.07C83.0768 53.07 83.9495 53.4853 84.5842 54.316ZM84.5842 57.732V55.506C84.3882 55.058 84.0708 54.694 83.6322 54.414C83.1935 54.1247 82.7175 53.98 82.2042 53.98C81.4482 53.98 80.8275 54.2367 80.3422 54.75C79.8475 55.2633 79.6002 55.8887 79.6002 56.626C79.6002 57.3633 79.8475 57.9887 80.3422 58.502C80.8368 59.006 81.4575 59.258 82.2042 59.258C82.7082 59.258 83.1795 59.118 83.6182 58.838C84.0568 58.5487 84.3788 58.18 84.5842 57.732Z" fill="black"/>
<path d="M90.2642 60.168C89.7229 60.168 89.1909 60.1027 88.6682 59.972C88.1549 59.832 87.7536 59.664 87.4642 59.468V58.432C88.2856 58.9827 89.2096 59.258 90.2362 59.258C90.8149 59.258 91.2675 59.1647 91.5942 58.978C91.9302 58.782 92.0982 58.516 92.0982 58.18C92.0982 57.8907 91.9395 57.6527 91.6222 57.466C91.5289 57.3913 91.2909 57.3073 90.9082 57.214C90.7962 57.1767 90.6422 57.1393 90.4462 57.102C90.1942 57.0367 90.0402 56.9993 89.9842 56.99C89.1349 56.7753 88.5282 56.5233 88.1642 56.234C87.8002 55.9353 87.6182 55.506 87.6182 54.946C87.6182 54.358 87.8562 53.9007 88.3322 53.574C88.8082 53.238 89.4756 53.07 90.3342 53.07C91.3516 53.07 92.1729 53.2707 92.7982 53.672V54.666C92.0329 54.2087 91.2256 53.98 90.3762 53.98C89.8069 53.98 89.3729 54.0687 89.0742 54.246C88.7849 54.4233 88.6402 54.666 88.6402 54.974C88.6402 55.31 88.8129 55.562 89.1582 55.73C89.2236 55.7487 89.3029 55.7813 89.3962 55.828C89.4989 55.8653 89.6015 55.898 89.7042 55.926L90.0122 56.01C90.2362 56.0847 90.4602 56.136 90.6842 56.164C91.5242 56.3693 92.1402 56.6213 92.5322 56.92C92.9336 57.2187 93.1342 57.6433 93.1342 58.194C93.1342 58.81 92.8636 59.2907 92.3222 59.636C91.7809 59.9907 91.0949 60.168 90.2642 60.168Z" fill="black"/>
<path d="M39.4222 74.168C38.0129 74.168 36.8229 73.692 35.8522 72.74C34.9002 71.788 34.4242 70.5747 34.4242 69.1C34.4242 67.6347 34.9002 66.426 35.8522 65.474C36.8136 64.5127 38.0129 64.032 39.4502 64.032C40.6916 64.032 41.7276 64.3447 42.5582 64.97V66.02C41.6529 65.3387 40.6356 64.998 39.5062 64.998C38.3582 64.998 37.3969 65.3853 36.6222 66.16C35.8569 66.9253 35.4742 67.91 35.4742 69.114C35.4742 70.2993 35.8522 71.2793 36.6082 72.054C37.3736 72.8193 38.3116 73.202 39.4222 73.202C40.5982 73.202 41.5269 72.8613 42.2082 72.18V68.372H43.2302V72.586C42.8009 73.0713 42.2502 73.4587 41.5782 73.748C40.9156 74.028 40.1969 74.168 39.4222 74.168Z" fill="black"/>
<path d="M50.7241 71.802V67.238H51.7321V74H50.7241V72.964C50.0054 73.7667 49.1047 74.168 48.0221 74.168C47.1914 74.168 46.5521 73.9253 46.1041 73.44C45.6654 72.9453 45.4461 72.25 45.4461 71.354V67.238H46.4541V71.13C46.4541 72.5207 47.0934 73.216 48.3721 73.216C48.8387 73.216 49.2867 73.076 49.7161 72.796C50.1734 72.4973 50.5094 72.166 50.7241 71.802Z" fill="black"/>
<path d="M55.2787 74H54.2707V67.238H55.2787V74ZM54.2707 65.418C54.14 65.278 54.0747 65.11 54.0747 64.914C54.0747 64.718 54.14 64.55 54.2707 64.41C54.4107 64.27 54.5787 64.2 54.7747 64.2C54.9707 64.2 55.1387 64.27 55.2787 64.41C55.4187 64.55 55.4887 64.718 55.4887 64.914C55.4887 65.11 55.4187 65.278 55.2787 65.418C55.1387 65.5487 54.9707 65.614 54.7747 65.614C54.5787 65.614 54.4107 65.5487 54.2707 65.418Z" fill="black"/>
<path d="M63.3654 68.316V64.2H64.3734V74H63.3654V72.922C62.7307 73.7527 61.8581 74.168 60.7474 74.168C59.7487 74.168 58.9321 73.8227 58.2974 73.132C57.6627 72.4413 57.3454 71.606 57.3454 70.626C57.3454 69.6367 57.6627 68.7967 58.2974 68.106C58.9321 67.4153 59.7487 67.07 60.7474 67.07C61.8581 67.07 62.7307 67.4853 63.3654 68.316ZM63.3654 71.732V69.506C63.1694 69.058 62.8521 68.694 62.4134 68.414C61.9747 68.1247 61.4987 67.98 60.9854 67.98C60.2294 67.98 59.6087 68.2367 59.1234 68.75C58.6287 69.2633 58.3814 69.8887 58.3814 70.626C58.3814 71.3633 58.6287 71.9887 59.1234 72.502C59.6181 73.006 60.2387 73.258 60.9854 73.258C61.4894 73.258 61.9607 73.118 62.3994 72.838C62.8381 72.5487 63.1601 72.18 63.3654 71.732Z" fill="black"/>
<path d="M69.9835 74.168C68.9288 74.168 68.0421 73.8367 67.3235 73.174C66.6141 72.5207 66.2595 71.6713 66.2595 70.626C66.2595 69.618 66.5768 68.7733 67.2115 68.092C67.8555 67.4107 68.6815 67.07 69.6895 67.07C70.2308 67.07 70.7115 67.182 71.1315 67.406C71.5515 67.6207 71.8828 67.9053 72.1255 68.26C72.3681 68.6147 72.5501 68.9927 72.6715 69.394C72.7928 69.786 72.8535 70.1827 72.8535 70.584V70.864H67.2955C67.3515 71.592 67.6408 72.1753 68.1635 72.614C68.6955 73.0433 69.3675 73.258 70.1795 73.258C70.9635 73.258 71.6868 73.048 72.3495 72.628V73.524C71.7988 73.9533 71.0101 74.168 69.9835 74.168ZM67.3095 70.038H71.8315C71.8035 69.5153 71.6075 69.044 71.2435 68.624C70.8981 68.1947 70.3661 67.98 69.6475 67.98C68.9755 67.98 68.4248 68.1853 67.9955 68.596C67.5755 69.016 67.3468 69.4967 67.3095 70.038Z" fill="black"/>
</svg>
