<svg width="106" height="106" viewBox="0 0 106 106" fill="none" xmlns="http://www.w3.org/2000/svg">
<rect width="106" height="106" rx="53" fill="white"/>
<path d="M21.2651 32.4H21.8571V34.832L24.4491 32.4H25.2331L22.4811 34.96L25.6571 38H24.8251L21.8571 35.152V38H21.2651V32.4Z" fill="black"/>
<path d="M27.1782 38.096C26.8902 38.096 26.6555 38.0587 26.4742 37.984V37.432C26.6662 37.5067 26.8689 37.544 27.0822 37.544C27.3649 37.544 27.5942 37.4267 27.7702 37.192C27.8555 37.08 27.9302 36.968 27.9942 36.856C28.0315 36.792 28.1062 36.648 28.2182 36.424L25.9622 32.4H26.6182L28.5062 35.816L30.0822 32.4H30.7142L28.6502 36.816C28.4369 37.2693 28.2102 37.5973 27.9702 37.8C27.7355 37.9973 27.4715 38.096 27.1782 38.096Z" fill="black"/>
<path d="M31.6746 38H30.9786L33.2266 34.96L31.3466 32.4H32.0426L33.5866 34.48L35.1386 32.4H35.8186L33.9386 34.952L36.1866 38H35.4826L33.5786 35.432L31.6746 38Z" fill="black"/>
<path d="M37.7946 38H37.2026V32.4H37.7946V34.728H41.1226V32.4H41.7146V38H41.1226V35.264H37.7946V38Z" fill="black"/>
<path d="M43.5286 38H42.8406L44.6486 35.424C44.2326 35.3547 43.9072 35.1867 43.6726 34.92C43.4432 34.6533 43.3286 34.32 43.3286 33.92C43.3286 33.456 43.4859 33.088 43.8006 32.816C44.1152 32.5387 44.5446 32.4 45.0886 32.4H47.6006V38H47.0086V35.48H45.2966L43.5286 38ZM45.1286 34.944H47.0086V32.936H45.1286C44.7446 32.936 44.4459 33.024 44.2326 33.2C44.0192 33.376 43.9126 33.624 43.9126 33.944C43.9126 34.264 44.0192 34.512 44.2326 34.688C44.4459 34.8587 44.7446 34.944 45.1286 34.944Z" fill="black"/>
<path d="M51.9126 38.096C51.6246 38.096 51.3899 38.0587 51.2086 37.984V37.432C51.4006 37.5067 51.6032 37.544 51.8166 37.544C52.0992 37.544 52.3286 37.4267 52.5046 37.192C52.5899 37.08 52.6646 36.968 52.7286 36.856C52.7659 36.792 52.8406 36.648 52.9526 36.424L50.6966 32.4H51.3526L53.2406 35.816L54.8166 32.4H55.4486L53.3846 36.816C53.1712 37.2693 52.9446 37.5973 52.7046 37.8C52.4699 37.9973 52.2059 38.096 51.9126 38.096Z" fill="black"/>
<path d="M57.0524 38H56.4604V32.4H58.8124C59.3671 32.4 59.8044 32.5413 60.1244 32.824C60.4444 33.1067 60.6044 33.4827 60.6044 33.952C60.6044 34.432 60.4444 34.816 60.1244 35.104C59.8044 35.3867 59.3671 35.528 58.8124 35.528H57.0524V38ZM57.0524 32.936V34.992H58.7724C59.1671 34.992 59.4738 34.904 59.6924 34.728C59.9111 34.5467 60.0204 34.2933 60.0204 33.968C60.0204 33.6373 59.9111 33.384 59.6924 33.208C59.4791 33.0267 59.1724 32.936 58.7724 32.936H57.0524Z" fill="black"/>
<path d="M62.3488 33.136C62.8874 32.5813 63.5594 32.304 64.3647 32.304C65.1647 32.304 65.8341 32.5813 66.3727 33.136C66.9114 33.6907 67.1808 34.3787 67.1808 35.2C67.1808 36.0267 66.9114 36.7173 66.3727 37.272C65.8394 37.8213 65.1701 38.096 64.3647 38.096C63.5541 38.096 62.8821 37.8213 62.3488 37.272C61.8154 36.7227 61.5487 36.032 61.5487 35.2C61.5487 34.3733 61.8154 33.6853 62.3488 33.136ZM62.7887 36.872C63.2101 37.32 63.7354 37.544 64.3647 37.544C64.9941 37.544 65.5194 37.32 65.9408 36.872C66.3674 36.4187 66.5807 35.8613 66.5807 35.2C66.5807 34.5387 66.3674 33.9813 65.9408 33.528C65.5194 33.08 64.9941 32.856 64.3647 32.856C63.7354 32.856 63.2101 33.08 62.7887 33.528C62.3621 33.9813 62.1488 34.5387 62.1488 35.2C62.1488 35.8613 62.3621 36.4187 62.7887 36.872Z" fill="black"/>
<path d="M71.2106 38H68.5386V32.4H70.9626C71.4586 32.4 71.8506 32.5227 72.1386 32.768C72.4266 33.008 72.5706 33.3387 72.5706 33.76C72.5706 34.048 72.5039 34.296 72.3706 34.504C72.2426 34.712 72.0639 34.8587 71.8346 34.944C72.2079 35.0027 72.5039 35.1653 72.7226 35.432C72.9412 35.6987 73.0506 36.0347 73.0506 36.44C73.0506 36.9147 72.8852 37.2933 72.5546 37.576C72.2239 37.8587 71.7759 38 71.2106 38ZM69.1306 35.288V37.464H71.1066C71.5226 37.464 71.8452 37.368 72.0746 37.176C72.3039 36.984 72.4186 36.7147 72.4186 36.368C72.4186 36.0267 72.3039 35.7627 72.0746 35.576C71.8452 35.384 71.5226 35.288 71.1066 35.288H69.1306ZM69.1306 32.936V34.768H70.8666C71.2239 34.768 71.4986 34.6907 71.6906 34.536C71.8879 34.3813 71.9866 34.1573 71.9866 33.864C71.9866 33.5653 71.8879 33.336 71.6906 33.176C71.4986 33.016 71.2239 32.936 70.8666 32.936H69.1306Z" fill="black"/>
<path d="M74.9352 38H74.3432V32.4H74.9352V34.728H78.2633V32.4H78.8552V38H78.2633V35.264H74.9352V38Z" fill="black"/>
<path d="M80.6692 38H79.9812L81.7892 35.424C81.3732 35.3547 81.0479 35.1867 80.8132 34.92C80.5839 34.6533 80.4692 34.32 80.4692 33.92C80.4692 33.456 80.6265 33.088 80.9412 32.816C81.2559 32.5387 81.6852 32.4 82.2292 32.4H84.7412V38H84.1492V35.48H82.4372L80.6692 38ZM82.2692 34.944H84.1492V32.936H82.2692C81.8852 32.936 81.5865 33.024 81.3732 33.2C81.1599 33.376 81.0532 33.624 81.0532 33.944C81.0532 34.264 81.1599 34.512 81.3732 34.688C81.5865 34.8587 81.8852 34.944 82.2692 34.944Z" fill="black"/>
<path d="M25.2495 74.144C24.0415 74.144 23.0215 73.736 22.1895 72.92C21.3735 72.104 20.9655 71.064 20.9655 69.8C20.9655 68.544 21.3735 67.508 22.1895 66.692C23.0135 65.868 24.0415 65.456 25.2735 65.456C26.3375 65.456 27.2255 65.724 27.9375 66.26V67.16C27.1615 66.576 26.2895 66.284 25.3215 66.284C24.3375 66.284 23.5135 66.616 22.8495 67.28C22.1935 67.936 21.8655 68.78 21.8655 69.812C21.8655 70.828 22.1895 71.668 22.8375 72.332C23.4935 72.988 24.2975 73.316 25.2495 73.316C26.2575 73.316 27.0535 73.024 27.6375 72.44V69.176H28.5135V72.788C28.1455 73.204 27.6735 73.536 27.0975 73.784C26.5295 74.024 25.9135 74.144 25.2495 74.144Z" fill="black"/>
<path d="M34.9368 72.116V68.204H35.8008V74H34.9368V73.112C34.3208 73.8 33.5488 74.144 32.6208 74.144C31.9088 74.144 31.3607 73.936 30.9767 73.52C30.6007 73.096 30.4128 72.5 30.4128 71.732V68.204H31.2768V71.54C31.2768 72.732 31.8247 73.328 32.9207 73.328C33.3207 73.328 33.7048 73.208 34.0728 72.968C34.4648 72.712 34.7528 72.428 34.9368 72.116Z" fill="black"/>
<path d="M38.8407 74H37.9767V68.204H38.8407V74ZM37.9767 66.644C37.8647 66.524 37.8087 66.38 37.8087 66.212C37.8087 66.044 37.8647 65.9 37.9767 65.78C38.0967 65.66 38.2407 65.6 38.4087 65.6C38.5767 65.6 38.7207 65.66 38.8407 65.78C38.9607 65.9 39.0207 66.044 39.0207 66.212C39.0207 66.38 38.9607 66.524 38.8407 66.644C38.7207 66.756 38.5767 66.812 38.4087 66.812C38.2407 66.812 38.0967 66.756 37.9767 66.644Z" fill="black"/>
<path d="M45.7722 69.128V65.6H46.6362V74H45.7722V73.076C45.2282 73.788 44.4802 74.144 43.5282 74.144C42.6722 74.144 41.9722 73.848 41.4282 73.256C40.8842 72.664 40.6122 71.948 40.6122 71.108C40.6122 70.26 40.8842 69.54 41.4282 68.948C41.9722 68.356 42.6722 68.06 43.5282 68.06C44.4802 68.06 45.2282 68.416 45.7722 69.128ZM45.7722 72.056V70.148C45.6042 69.764 45.3322 69.452 44.9562 69.212C44.5802 68.964 44.1722 68.84 43.7322 68.84C43.0842 68.84 42.5522 69.06 42.1362 69.5C41.7122 69.94 41.5002 70.476 41.5002 71.108C41.5002 71.74 41.7122 72.276 42.1362 72.716C42.5602 73.148 43.0922 73.364 43.7322 73.364C44.1642 73.364 44.5682 73.244 44.9442 73.004C45.3202 72.756 45.5962 72.44 45.7722 72.056Z" fill="black"/>
<path d="M51.4448 74.144C50.5408 74.144 49.7808 73.86 49.1648 73.292C48.5568 72.732 48.2528 72.004 48.2528 71.108C48.2528 70.244 48.5248 69.52 49.0688 68.936C49.6208 68.352 50.3288 68.06 51.1928 68.06C51.6568 68.06 52.0688 68.156 52.4288 68.348C52.7888 68.532 53.0728 68.776 53.2808 69.08C53.4888 69.384 53.6448 69.708 53.7488 70.052C53.8528 70.388 53.9048 70.728 53.9048 71.072V71.312H49.1408C49.1888 71.936 49.4368 72.436 49.8848 72.812C50.3408 73.18 50.9168 73.364 51.6128 73.364C52.2848 73.364 52.9048 73.184 53.4728 72.824V73.592C53.0008 73.96 52.3248 74.144 51.4448 74.144ZM49.1528 70.604H53.0288C53.0048 70.156 52.8368 69.752 52.5248 69.392C52.2288 69.024 51.7728 68.84 51.1568 68.84C50.5808 68.84 50.1088 69.016 49.7408 69.368C49.3808 69.728 49.1848 70.14 49.1528 70.604Z" fill="black"/>
<path d="M63.9243 74H58.2003V73.34L61.0323 70.64C61.6563 70.048 62.0923 69.572 62.3403 69.212C62.5963 68.836 62.7243 68.416 62.7243 67.952C62.7243 67.456 62.5483 67.056 62.1963 66.752C61.8443 66.44 61.3843 66.284 60.8163 66.284C59.9283 66.284 59.1203 66.66 58.3923 67.412V66.416C59.1043 65.776 59.9403 65.456 60.9003 65.456C61.6763 65.456 62.3203 65.676 62.8323 66.116C63.3523 66.564 63.6123 67.14 63.6123 67.844C63.6123 68.404 63.4723 68.916 63.1923 69.38C62.9123 69.836 62.4323 70.384 61.7523 71.024L59.4963 73.196H63.9243V74Z" fill="black"/>
<path d="M65.3787 69.8C65.3787 68.568 65.6947 67.54 66.3267 66.716C66.9667 65.876 67.7987 65.456 68.8227 65.456C69.8387 65.456 70.6667 65.872 71.3067 66.704C71.9387 67.528 72.2547 68.56 72.2547 69.8C72.2547 71.04 71.9387 72.072 71.3067 72.896C70.6667 73.728 69.8387 74.144 68.8227 74.144C67.7987 74.144 66.9667 73.728 66.3267 72.896C65.6947 72.072 65.3787 71.04 65.3787 69.8ZM71.3787 69.8C71.3787 68.8 71.1387 67.964 70.6587 67.292C70.1787 66.62 69.5667 66.284 68.8227 66.284C68.0787 66.284 67.4667 66.62 66.9867 67.292C66.5067 67.964 66.2667 68.8 66.2667 69.8C66.2667 70.8 66.5027 71.64 66.9747 72.32C67.4547 72.984 68.0707 73.316 68.8227 73.316C69.5747 73.316 70.1867 72.984 70.6587 72.32C71.1387 71.648 71.3787 70.808 71.3787 69.8Z" fill="black"/>
<path d="M79.3228 74H73.5988V73.34L76.4308 70.64C77.0548 70.048 77.4908 69.572 77.7388 69.212C77.9948 68.836 78.1228 68.416 78.1228 67.952C78.1228 67.456 77.9468 67.056 77.5948 66.752C77.2428 66.44 76.7828 66.284 76.2148 66.284C75.3268 66.284 74.5188 66.66 73.7908 67.412V66.416C74.5028 65.776 75.3388 65.456 76.2988 65.456C77.0748 65.456 77.7188 65.676 78.2308 66.116C78.7508 66.564 79.0108 67.14 79.0108 67.844C79.0108 68.404 78.8708 68.916 78.5908 69.38C78.3108 69.836 77.8308 70.384 77.1508 71.024L74.8948 73.196H79.3228V74Z" fill="black"/>
<path d="M86.2251 74H80.5011V73.34L83.3331 70.64C83.9571 70.048 84.3931 69.572 84.6411 69.212C84.8971 68.836 85.0251 68.416 85.0251 67.952C85.0251 67.456 84.8491 67.056 84.4971 66.752C84.1451 66.44 83.6851 66.284 83.1171 66.284C82.2291 66.284 81.4211 66.66 80.6931 67.412V66.416C81.4051 65.776 82.2411 65.456 83.2011 65.456C83.9771 65.456 84.6211 65.676 85.1331 66.116C85.6531 66.564 85.9131 67.14 85.9131 67.844C85.9131 68.404 85.7731 68.916 85.4931 69.38C85.2131 69.836 84.7331 70.384 84.0531 71.024L81.7971 73.196H86.2251V74Z" fill="black"/>
<path d="M8.21 59H6.75V45H8.21L13.27 51.78L18.33 45H19.77V59H18.31V47.24L13.73 53.36H12.83L8.21 47.24V59Z" fill="black"/>
<path d="M25.2831 59H23.8031V45H25.2831V59Z" fill="black"/>
<path d="M35.9281 59.24C33.8881 59.24 32.1748 58.56 30.7881 57.2C29.4281 55.84 28.7481 54.1067 28.7481 52C28.7481 49.9067 29.4281 48.18 30.7881 46.82C32.1615 45.4467 33.8748 44.76 35.9281 44.76C37.4481 44.76 38.7548 45.1067 39.8481 45.8V47.32C38.6215 46.5333 37.3215 46.14 35.9481 46.14C34.3481 46.14 32.9948 46.7 31.8881 47.82C30.7948 48.9133 30.2481 50.3067 30.2481 52C30.2481 53.7067 30.7948 55.1067 31.8881 56.2C32.9948 57.3067 34.3615 57.86 35.9881 57.86C37.6148 57.86 39.0015 57.3933 40.1481 56.46V58C39.0015 58.8267 37.5948 59.24 35.9281 59.24Z" fill="black"/>
<path d="M44.6167 59H43.1367V45H44.6167V50.82H52.9367V45H54.4167V59H52.9367V52.16H44.6167V59Z" fill="black"/>
<path d="M68.2516 59H58.3516V45H67.9516V46.34H59.8316V50.82H66.4916V52.16H59.8316V57.66H68.2516V59Z" fill="black"/>
<path d="M80.4445 59H71.1445V45H72.6245V57.66H80.4445V59Z" fill="black"/>
<path d="M84.6581 59H83.1781V45H84.6581V59Z" fill="black"/>
<path d="M90.1431 59H88.7031V45H89.9831L98.8231 56.44V45H100.263V59H99.0031L90.1431 47.52V59Z" fill="black"/>
</svg>
