<svg width="18" height="18" viewBox="0 0 18 18" fill="none" xmlns="http://www.w3.org/2000/svg">
<path d="M7.43029 3.43683C8.08466 1.59005 8.41185 0.666656 9.00033 0.666656C9.5888 0.666656 9.91599 1.59005 10.5704 3.43683L11.3499 5.63673C11.4802 6.0046 11.5454 6.18853 11.6786 6.32173C11.8118 6.45493 11.9957 6.5201 12.3636 6.65045L14.5635 7.42995C16.4103 8.08433 17.3337 8.41151 17.3337 8.99999C17.3337 9.58847 16.4103 9.91566 14.5635 10.57L12.3636 11.3495C11.9957 11.4799 11.8118 11.5451 11.6786 11.6783C11.5454 11.8114 11.4802 11.9954 11.3499 12.3633L10.5704 14.5632C9.91599 16.4099 9.5888 17.3333 9.00033 17.3333C8.41185 17.3333 8.08466 16.4099 7.43029 14.5632L6.65079 12.3633C6.52044 11.9954 6.45526 11.8114 6.32207 11.6783C6.18887 11.5451 6.00493 11.4799 5.63706 11.3495L3.43716 10.57C1.59038 9.91566 0.666992 9.58847 0.666992 8.99999C0.666992 8.41151 1.59038 8.08433 3.43716 7.42995L5.63706 6.65045C6.00493 6.5201 6.18887 6.45493 6.32207 6.32173C6.45526 6.18853 6.52044 6.0046 6.65079 5.63673L7.43029 3.43683Z" fill="#FE384F"/>
</svg>
