<svg width="106" height="106" viewBox="0 0 106 106" fill="none" xmlns="http://www.w3.org/2000/svg">
<rect width="106" height="106" rx="53" fill="white"/>
<path d="M15.3847 35H14.7927V29.4H17.1447C17.6994 29.4 18.1367 29.5413 18.4567 29.824C18.7767 30.1067 18.9367 30.4827 18.9367 30.952C18.9367 31.432 18.7767 31.816 18.4567 32.104C18.1367 32.3867 17.6994 32.528 17.1447 32.528H15.3847V35ZM15.3847 29.936V31.992H17.1047C17.4994 31.992 17.806 31.904 18.0247 31.728C18.2434 31.5467 18.3527 31.2933 18.3527 30.968C18.3527 30.6373 18.2434 30.384 18.0247 30.208C17.8114 30.0267 17.5047 29.936 17.1047 29.936H15.3847Z" fill="black"/>
<path d="M24.073 35H20.113V29.4H23.953V29.936H20.705V31.728H23.369V32.264H20.705V34.464H24.073V35Z" fill="black"/>
<path d="M25.2302 29.4H25.8222V31.832L28.4142 29.4H29.1982L26.4462 31.96L29.6222 35H28.7902L25.8222 32.152V35H25.2302V29.4Z" fill="black"/>
<path d="M30.6576 30.136C31.1962 29.5813 31.8682 29.304 32.6736 29.304C33.4736 29.304 34.1429 29.5813 34.6816 30.136C35.2202 30.6907 35.4896 31.3787 35.4896 32.2C35.4896 33.0267 35.2202 33.7173 34.6816 34.272C34.1482 34.8213 33.4789 35.096 32.6736 35.096C31.8629 35.096 31.1909 34.8213 30.6576 34.272C30.1242 33.7227 29.8576 33.032 29.8576 32.2C29.8576 31.3733 30.1242 30.6853 30.6576 30.136ZM31.0976 33.872C31.5189 34.32 32.0442 34.544 32.6736 34.544C33.3029 34.544 33.8282 34.32 34.2496 33.872C34.6762 33.4187 34.8896 32.8613 34.8896 32.2C34.8896 31.5387 34.6762 30.9813 34.2496 30.528C33.8282 30.08 33.3029 29.856 32.6736 29.856C32.0442 29.856 31.5189 30.08 31.0976 30.528C30.6709 30.9813 30.4576 31.5387 30.4576 32.2C30.4576 32.8613 30.6709 33.4187 31.0976 33.872Z" fill="black"/>
<path d="M37.4314 35H36.8474V29.4H37.4314L39.4554 32.112L41.4794 29.4H42.0554V35H41.4714V30.296L39.6394 32.744H39.2794L37.4314 30.296V35Z" fill="black"/>
<path d="M47.5886 35H43.6286V29.4H47.4686V29.936H44.2206V31.728H46.8846V32.264H44.2206V34.464H47.5886V35Z" fill="black"/>
<path d="M49.3378 35H48.7458V29.4H49.3378V31.728H52.6658V29.4H53.2578V35H52.6658V32.264H49.3378V35Z" fill="black"/>
<path d="M54.7278 36.248H54.1758V34.464H54.7038C55.0504 33.9787 55.2984 33.4107 55.4478 32.76C55.6024 32.0987 55.6798 31.2027 55.6798 30.072V29.4H59.1358V34.464H59.9838V36.248H59.4318V35H54.7278V36.248ZM55.3678 34.464H58.5438V29.936H56.2638V30.312C56.2638 32.2213 55.9651 33.6053 55.3678 34.464Z" fill="black"/>
<path d="M61.6107 30.136C62.1494 29.5813 62.8214 29.304 63.6267 29.304C64.4267 29.304 65.096 29.5813 65.6347 30.136C66.1734 30.6907 66.4427 31.3787 66.4427 32.2C66.4427 33.0267 66.1734 33.7173 65.6347 34.272C65.1014 34.8213 64.432 35.096 63.6267 35.096C62.816 35.096 62.144 34.8213 61.6107 34.272C61.0774 33.7227 60.8107 33.032 60.8107 32.2C60.8107 31.3733 61.0774 30.6853 61.6107 30.136ZM62.0507 33.872C62.472 34.32 62.9974 34.544 63.6267 34.544C64.256 34.544 64.7814 34.32 65.2027 33.872C65.6294 33.4187 65.8427 32.8613 65.8427 32.2C65.8427 31.5387 65.6294 30.9813 65.2027 30.528C64.7814 30.08 64.256 29.856 63.6267 29.856C62.9974 29.856 62.472 30.08 62.0507 30.528C61.624 30.9813 61.4107 31.5387 61.4107 32.2C61.4107 32.8613 61.624 33.4187 62.0507 33.872Z" fill="black"/>
<path d="M70.4725 35H67.8005V29.4H70.2245C70.7205 29.4 71.1125 29.5227 71.4005 29.768C71.6885 30.008 71.8325 30.3387 71.8325 30.76C71.8325 31.048 71.7658 31.296 71.6325 31.504C71.5045 31.712 71.3258 31.8587 71.0965 31.944C71.4698 32.0027 71.7658 32.1653 71.9845 32.432C72.2032 32.6987 72.3125 33.0347 72.3125 33.44C72.3125 33.9147 72.1472 34.2933 71.8165 34.576C71.4859 34.8587 71.0378 35 70.4725 35ZM68.3925 32.288V34.464H70.3685C70.7845 34.464 71.1072 34.368 71.3365 34.176C71.5659 33.984 71.6805 33.7147 71.6805 33.368C71.6805 33.0267 71.5659 32.7627 71.3365 32.576C71.1072 32.384 70.7845 32.288 70.3685 32.288H68.3925ZM68.3925 29.936V31.768H70.1285C70.4859 31.768 70.7605 31.6907 70.9525 31.536C71.1498 31.3813 71.2485 31.1573 71.2485 30.864C71.2485 30.5653 71.1498 30.336 70.9525 30.176C70.7605 30.016 70.4859 29.936 70.1285 29.936H68.3925Z" fill="black"/>
<path d="M73.6692 35H73.0532L75.5492 29.368H76.1012L78.6052 35H77.9812L77.2852 33.456H74.3492L73.6692 35ZM75.8212 30.112L74.5492 32.936H77.0932L75.8212 30.112Z" fill="black"/>
<path d="M80.2206 35H79.6286V29.4H80.2206V31.728H83.5486V29.4H84.1406V35H83.5486V32.264H80.2206V35Z" fill="black"/>
<path d="M86.2826 30.136C86.8212 29.5813 87.4932 29.304 88.2986 29.304C89.0986 29.304 89.7679 29.5813 90.3066 30.136C90.8452 30.6907 91.1146 31.3787 91.1146 32.2C91.1146 33.0267 90.8452 33.7173 90.3066 34.272C89.7732 34.8213 89.1039 35.096 88.2986 35.096C87.4879 35.096 86.8159 34.8213 86.2826 34.272C85.7492 33.7227 85.4826 33.032 85.4826 32.2C85.4826 31.3733 85.7492 30.6853 86.2826 30.136ZM86.7226 33.872C87.1439 34.32 87.6692 34.544 88.2986 34.544C88.9279 34.544 89.4532 34.32 89.8746 33.872C90.3012 33.4187 90.5146 32.8613 90.5146 32.2C90.5146 31.5387 90.3012 30.9813 89.8746 30.528C89.4532 30.08 88.9279 29.856 88.2986 29.856C87.6692 29.856 87.1439 30.08 86.7226 30.528C86.2959 30.9813 86.0826 31.5387 86.0826 32.2C86.0826 32.8613 86.2959 33.4187 86.7226 33.872Z" fill="black"/>
<path d="M19.2961 59H17.8161V46.34H12.9961V45H24.1761V46.34H19.2961V59Z" fill="black"/>
<path d="M25.0216 59H23.4816L29.7216 44.92H31.1016L37.3616 59H35.8016L34.0616 55.14H26.7216L25.0216 59ZM30.4016 46.78L27.2216 53.84H33.5816L30.4016 46.78Z" fill="black"/>
<path d="M42.968 59H41.488V46.34H36.668V45H47.848V46.34H42.968V59Z" fill="black"/>
<path d="M59.8256 59H50.5256V45H52.0056V57.66H59.8256V59Z" fill="black"/>
<path d="M72.3592 59H62.4592V45H72.0592V46.34H63.9392V50.82H70.5992V52.16H63.9392V57.66H72.3592V59Z" fill="black"/>
<path d="M76.7322 59H75.2522V45H81.5122C82.8722 45 83.9455 45.3467 84.7322 46.04C85.5322 46.72 85.9322 47.64 85.9322 48.8C85.9322 49.8 85.6389 50.6333 85.0522 51.3C84.4789 51.9667 83.6722 52.3867 82.6322 52.56L87.1522 59H85.4122L81.0122 52.7H76.7322V59ZM76.7322 46.34V51.36H81.4322C82.3922 51.36 83.1322 51.1467 83.6522 50.72C84.1855 50.28 84.4522 49.66 84.4522 48.86C84.4522 48.06 84.1855 47.44 83.6522 47C83.1189 46.56 82.3789 46.34 81.4322 46.34H76.7322Z" fill="black"/>
<path d="M89.4587 62.04H88.2988L89.8988 56.94H91.5788L89.4587 62.04Z" fill="black"/>
<path d="M44.7907 79.24C42.7774 79.24 41.0774 78.56 39.6907 77.2C38.3307 75.84 37.6507 74.1067 37.6507 72C37.6507 69.9067 38.3307 68.18 39.6907 66.82C41.064 65.4467 42.7774 64.76 44.8307 64.76C46.604 64.76 48.084 65.2067 49.2707 66.1V67.6C47.9774 66.6267 46.524 66.14 44.9107 66.14C43.2707 66.14 41.8974 66.6933 40.7907 67.8C39.6974 68.8933 39.1507 70.3 39.1507 72.02C39.1507 73.7133 39.6907 75.1133 40.7707 76.22C41.864 77.3133 43.204 77.86 44.7907 77.86C46.4707 77.86 47.7974 77.3733 48.7707 76.4V70.96H50.2307V76.98C49.6174 77.6733 48.8307 78.2267 47.8707 78.64C46.924 79.04 45.8974 79.24 44.7907 79.24Z" fill="black"/>
<path d="M67.3362 72C67.3362 73.6133 66.9028 75.0467 66.0362 76.3C65.1828 77.54 64.0362 78.4 62.5962 78.88C63.4628 79.7333 64.3295 80.16 65.1962 80.16C65.8362 80.16 66.3895 80.0067 66.8562 79.7V81.14C66.2962 81.4067 65.6828 81.54 65.0162 81.54C64.4962 81.54 63.9828 81.4133 63.4762 81.16C62.9828 80.92 62.5628 80.66 62.2162 80.38C61.9762 80.1933 61.5495 79.8067 60.9362 79.22C60.8428 79.2333 60.6295 79.24 60.2962 79.24C58.2695 79.24 56.5895 78.5533 55.2562 77.18C53.9228 75.8067 53.2562 74.08 53.2562 72C53.2562 69.9333 53.9228 68.2133 55.2562 66.84C56.6028 65.4533 58.2828 64.76 60.2962 64.76C62.2962 64.76 63.9695 65.4533 65.3162 66.84C66.6628 68.2267 67.3362 69.9467 67.3362 72ZM56.3562 76.18C57.4095 77.3 58.7228 77.86 60.2962 77.86C61.8695 77.86 63.1828 77.3 64.2362 76.18C65.3028 75.0467 65.8362 73.6533 65.8362 72C65.8362 70.3467 65.3028 68.9533 64.2362 67.82C63.1828 66.7 61.8695 66.14 60.2962 66.14C58.7228 66.14 57.4095 66.7 56.3562 67.82C55.2895 68.9533 54.7562 70.3467 54.7562 72C54.7562 73.6533 55.2895 75.0467 56.3562 76.18Z" fill="black"/>
</svg>
