<svg width="234" height="28" viewBox="0 0 234 28" fill="none" xmlns="http://www.w3.org/2000/svg">
<path fill-rule="evenodd" clip-rule="evenodd" d="M11.5317 14.4724C15.5208 18.4604 16.4258 13.8467 18.9656 16.3848C21.4143 18.8328 22.8216 19.3232 19.7192 22.4247C19.3306 22.737 16.8616 26.4943 8.1846 17.8197C-0.493478 9.144 3.26158 6.67244 3.57397 6.28395C6.68387 3.17385 7.16586 4.58938 9.61449 7.03733C12.1544 9.5765 7.54266 10.4844 11.5317 14.4724Z" fill="#838383"/>
<path d="M42.4688 12.6484V15.1914H30.7734V12.6484H42.4688ZM37.9922 7.86719V20.2891H35.2617V7.86719H37.9922ZM55.957 4.9375V6.48438L49.1367 22H46.1602L52.9688 7.1875H44.1328V4.9375H55.957ZM64.4648 15.2617V15.0625C64.4648 13.3906 64.6445 11.875 65.0039 10.5156C65.3711 9.14844 65.8477 7.95312 66.4336 6.92969C67.0195 5.89844 67.6445 5.04687 68.3086 4.375C68.9805 3.69531 69.625 3.20703 70.2422 2.91016L70.8047 4.52734C70.3516 4.86328 69.8984 5.32812 69.4453 5.92188C69 6.51563 68.5898 7.24609 68.2148 8.11328C67.8477 8.97266 67.5508 9.98047 67.3242 11.1367C67.1055 12.2852 66.9961 13.5859 66.9961 15.0391V15.2852C66.9961 16.7383 67.1055 18.043 67.3242 19.1992C67.5508 20.3477 67.8477 21.3555 68.2148 22.2227C68.5898 23.0898 69 23.8242 69.4453 24.4258C69.8984 25.0352 70.3516 25.5195 70.8047 25.8789L70.2422 27.4258C69.625 27.1211 68.9805 26.6289 68.3086 25.9492C67.6445 25.2773 67.0195 24.4258 66.4336 23.3945C65.8477 22.3711 65.3711 21.1797 65.0039 19.8203C64.6445 18.4531 64.4648 16.9336 64.4648 15.2617ZM84.3164 15.918V18.168H72.0117L71.918 16.4688L79.2773 4.9375H81.5391L79.0898 9.13281L74.8594 15.918H84.3164ZM82.1836 4.9375V22H79.3594V4.9375H82.1836ZM88.4766 19.7734H88.7109C89.7891 19.7734 90.6875 19.6328 91.4062 19.3516C92.1328 19.0625 92.7109 18.6641 93.1406 18.1562C93.5703 17.6484 93.8789 17.0508 94.0664 16.3633C94.2539 15.6758 94.3477 14.9297 94.3477 14.125V11.1836C94.3477 10.4883 94.2734 9.87891 94.125 9.35547C93.9844 8.82422 93.7812 8.38281 93.5156 8.03125C93.2578 7.67187 92.957 7.40234 92.6133 7.22266C92.2773 7.04297 91.9141 6.95312 91.5234 6.95312C91.0938 6.95312 90.707 7.05078 90.3633 7.24609C90.0273 7.43359 89.7422 7.69531 89.5078 8.03125C89.2812 8.35938 89.1055 8.74609 88.9805 9.19141C88.8633 9.62891 88.8047 10.0977 88.8047 10.5977C88.8047 11.0664 88.8594 11.5195 88.9688 11.957C89.0859 12.3867 89.2578 12.7695 89.4844 13.1055C89.7109 13.4414 89.9961 13.707 90.3398 13.9023C90.6836 14.0977 91.0859 14.1953 91.5469 14.1953C91.9844 14.1953 92.3867 14.1133 92.7539 13.9492C93.1211 13.7773 93.4414 13.5469 93.7148 13.2578C93.9883 12.9688 94.2031 12.6445 94.3594 12.2852C94.5156 11.9258 94.6016 11.5586 94.6172 11.1836L95.6953 11.5117C95.6953 12.1055 95.5703 12.6914 95.3203 13.2695C95.0781 13.8398 94.7383 14.3633 94.3008 14.8398C93.8711 15.3086 93.3672 15.6836 92.7891 15.9648C92.2188 16.2461 91.5977 16.3867 90.9258 16.3867C90.1133 16.3867 89.3945 16.2344 88.7695 15.9297C88.1523 15.6172 87.6367 15.1953 87.2227 14.6641C86.8164 14.1328 86.5117 13.5234 86.3086 12.8359C86.1055 12.1484 86.0039 11.4258 86.0039 10.668C86.0039 9.84766 86.1289 9.07812 86.3789 8.35938C86.6289 7.64063 86.9922 7.00781 87.4688 6.46094C87.9453 5.90625 88.5234 5.47656 89.2031 5.17188C89.8906 4.85937 90.668 4.70312 91.5352 4.70312C92.457 4.70312 93.2656 4.88281 93.9609 5.24219C94.6562 5.60156 95.2422 6.09766 95.7188 6.73047C96.1953 7.36328 96.5547 8.09766 96.7969 8.93359C97.0391 9.76953 97.1602 10.668 97.1602 11.6289V12.625C97.1602 13.6328 97.0703 14.6055 96.8906 15.543C96.7109 16.4727 96.418 17.3359 96.0117 18.1328C95.6133 18.9219 95.0859 19.6172 94.4297 20.2188C93.7812 20.8125 92.9844 21.2773 92.0391 21.6133C91.1016 21.9414 90 22.1055 88.7344 22.1055H88.4766V19.7734ZM102.809 14.0664L100.559 13.5156L101.484 4.9375H110.684V7.32812H103.828L103.359 11.5117C103.625 11.3555 103.992 11.2031 104.461 11.0547C104.93 10.8984 105.465 10.8203 106.066 10.8203C106.871 10.8203 107.59 10.9531 108.223 11.2188C108.863 11.4766 109.406 11.8555 109.852 12.3555C110.297 12.8477 110.637 13.4492 110.871 14.1602C111.105 14.8633 111.223 15.6562 111.223 16.5391C111.223 17.3281 111.105 18.0664 110.871 18.7539C110.645 19.4414 110.301 20.0469 109.84 20.5703C109.379 21.0938 108.797 21.5039 108.094 21.8008C107.398 22.0898 106.574 22.2344 105.621 22.2344C104.91 22.2344 104.227 22.1328 103.57 21.9297C102.922 21.7188 102.34 21.4102 101.824 21.0039C101.309 20.5898 100.895 20.082 100.582 19.4805C100.27 18.8711 100.09 18.1719 100.043 17.3828H102.809C102.879 17.9375 103.031 18.4102 103.266 18.8008C103.508 19.1836 103.828 19.4766 104.227 19.6797C104.625 19.8828 105.086 19.9844 105.609 19.9844C106.086 19.9844 106.496 19.9023 106.84 19.7383C107.184 19.5664 107.469 19.3242 107.695 19.0117C107.93 18.6914 108.102 18.3164 108.211 17.8867C108.328 17.457 108.387 16.9805 108.387 16.457C108.387 15.957 108.32 15.5 108.188 15.0859C108.062 14.6719 107.871 14.3125 107.613 14.0078C107.363 13.7031 107.047 13.4688 106.664 13.3047C106.281 13.1328 105.84 13.0469 105.34 13.0469C104.668 13.0469 104.152 13.1445 103.793 13.3398C103.441 13.5352 103.113 13.7773 102.809 14.0664ZM119.098 15.0625V15.2617C119.098 16.9102 118.91 18.4141 118.535 19.7734C118.168 21.1328 117.688 22.3281 117.094 23.3594C116.508 24.3906 115.871 25.25 115.184 25.9375C114.504 26.625 113.852 27.1211 113.227 27.4258L112.652 25.8789C113.105 25.5352 113.555 25.0625 114 24.4609C114.453 23.8672 114.863 23.1289 115.23 22.2461C115.605 21.3711 115.902 20.3555 116.121 19.1992C116.348 18.043 116.461 16.7383 116.461 15.2852V15.0391C116.461 13.5859 116.344 12.2812 116.109 11.125C115.883 9.96094 115.578 8.94531 115.195 8.07812C114.812 7.20312 114.398 6.46484 113.953 5.86328C113.508 5.26172 113.074 4.79297 112.652 4.45703L113.227 2.91016C113.852 3.20703 114.504 3.69922 115.184 4.38672C115.871 5.07422 116.508 5.9375 117.094 6.97656C117.688 8.00781 118.168 9.20312 118.535 10.5625C118.91 11.9219 119.098 13.4219 119.098 15.0625ZM135.562 4.87891V22H132.738V8.23047L128.555 9.64844V7.31641L135.223 4.87891H135.562ZM149.203 4.87891V22H146.379V8.23047L142.195 9.64844V7.31641L148.863 4.87891H149.203ZM162.844 4.87891V22H160.02V8.23047L155.836 9.64844V7.31641L162.504 4.87891H162.844ZM177.715 14.0664L175.465 13.5156L176.391 4.9375H185.59V7.32812H178.734L178.266 11.5117C178.531 11.3555 178.898 11.2031 179.367 11.0547C179.836 10.8984 180.371 10.8203 180.973 10.8203C181.777 10.8203 182.496 10.9531 183.129 11.2188C183.77 11.4766 184.312 11.8555 184.758 12.3555C185.203 12.8477 185.543 13.4492 185.777 14.1602C186.012 14.8633 186.129 15.6562 186.129 16.5391C186.129 17.3281 186.012 18.0664 185.777 18.7539C185.551 19.4414 185.207 20.0469 184.746 20.5703C184.285 21.0938 183.703 21.5039 183 21.8008C182.305 22.0898 181.48 22.2344 180.527 22.2344C179.816 22.2344 179.133 22.1328 178.477 21.9297C177.828 21.7188 177.246 21.4102 176.73 21.0039C176.215 20.5898 175.801 20.082 175.488 19.4805C175.176 18.8711 174.996 18.1719 174.949 17.3828H177.715C177.785 17.9375 177.938 18.4102 178.172 18.8008C178.414 19.1836 178.734 19.4766 179.133 19.6797C179.531 19.8828 179.992 19.9844 180.516 19.9844C180.992 19.9844 181.402 19.9023 181.746 19.7383C182.09 19.5664 182.375 19.3242 182.602 19.0117C182.836 18.6914 183.008 18.3164 183.117 17.8867C183.234 17.457 183.293 16.9805 183.293 16.457C183.293 15.957 183.227 15.5 183.094 15.0859C182.969 14.6719 182.777 14.3125 182.52 14.0078C182.27 13.7031 181.953 13.4688 181.57 13.3047C181.188 13.1328 180.746 13.0469 180.246 13.0469C179.574 13.0469 179.059 13.1445 178.699 13.3398C178.348 13.5352 178.02 13.7773 177.715 14.0664ZM199.547 17.3477C199.547 18.4102 199.301 19.3047 198.809 20.0312C198.316 20.7578 197.645 21.3086 196.793 21.6836C195.949 22.0508 194.996 22.2344 193.934 22.2344C192.871 22.2344 191.914 22.0508 191.062 21.6836C190.211 21.3086 189.539 20.7578 189.047 20.0312C188.555 19.3047 188.309 18.4102 188.309 17.3477C188.309 16.6445 188.445 16.0078 188.719 15.4375C188.992 14.8594 189.379 14.3633 189.879 13.9492C190.387 13.5273 190.98 13.2031 191.66 12.9766C192.348 12.75 193.098 12.6367 193.91 12.6367C194.988 12.6367 195.953 12.8359 196.805 13.2344C197.656 13.6328 198.324 14.1836 198.809 14.8867C199.301 15.5898 199.547 16.4102 199.547 17.3477ZM196.711 17.207C196.711 16.6367 196.594 16.1367 196.359 15.707C196.125 15.2773 195.797 14.9453 195.375 14.7109C194.953 14.4766 194.465 14.3594 193.91 14.3594C193.348 14.3594 192.859 14.4766 192.445 14.7109C192.031 14.9453 191.707 15.2773 191.473 15.707C191.246 16.1367 191.133 16.6367 191.133 17.207C191.133 17.7852 191.246 18.2852 191.473 18.707C191.699 19.1211 192.023 19.4375 192.445 19.6562C192.867 19.875 193.363 19.9844 193.934 19.9844C194.504 19.9844 194.996 19.875 195.41 19.6562C195.824 19.4375 196.145 19.1211 196.371 18.707C196.598 18.2852 196.711 17.7852 196.711 17.207ZM199.16 9.42578C199.16 10.2773 198.934 11.0352 198.48 11.6992C198.035 12.3633 197.418 12.8867 196.629 13.2695C195.84 13.6445 194.941 13.832 193.934 13.832C192.918 13.832 192.012 13.6445 191.215 13.2695C190.426 12.8867 189.805 12.3633 189.352 11.6992C188.906 11.0352 188.684 10.2773 188.684 9.42578C188.684 8.41016 188.906 7.55469 189.352 6.85938C189.805 6.15625 190.426 5.62109 191.215 5.25391C192.004 4.88672 192.906 4.70312 193.922 4.70312C194.938 4.70312 195.84 4.88672 196.629 5.25391C197.418 5.62109 198.035 6.15625 198.48 6.85938C198.934 7.55469 199.16 8.41016 199.16 9.42578ZM196.336 9.51953C196.336 9.01172 196.234 8.56641 196.031 8.18359C195.836 7.79297 195.559 7.48828 195.199 7.26953C194.84 7.05078 194.414 6.94141 193.922 6.94141C193.43 6.94141 193.004 7.04688 192.645 7.25781C192.285 7.46875 192.008 7.76562 191.812 8.14844C191.617 8.53125 191.52 8.98828 191.52 9.51953C191.52 10.043 191.617 10.5 191.812 10.8906C192.008 11.2734 192.285 11.5742 192.645 11.793C193.012 12.0117 193.441 12.1211 193.934 12.1211C194.426 12.1211 194.852 12.0117 195.211 11.793C195.57 11.5742 195.848 11.2734 196.043 10.8906C196.238 10.5 196.336 10.043 196.336 9.51953ZM210.973 14.0664L208.723 13.5156L209.648 4.9375H218.848V7.32812H211.992L211.523 11.5117C211.789 11.3555 212.156 11.2031 212.625 11.0547C213.094 10.8984 213.629 10.8203 214.23 10.8203C215.035 10.8203 215.754 10.9531 216.387 11.2188C217.027 11.4766 217.57 11.8555 218.016 12.3555C218.461 12.8477 218.801 13.4492 219.035 14.1602C219.27 14.8633 219.387 15.6562 219.387 16.5391C219.387 17.3281 219.27 18.0664 219.035 18.7539C218.809 19.4414 218.465 20.0469 218.004 20.5703C217.543 21.0938 216.961 21.5039 216.258 21.8008C215.562 22.0898 214.738 22.2344 213.785 22.2344C213.074 22.2344 212.391 22.1328 211.734 21.9297C211.086 21.7188 210.504 21.4102 209.988 21.0039C209.473 20.5898 209.059 20.082 208.746 19.4805C208.434 18.8711 208.254 18.1719 208.207 17.3828H210.973C211.043 17.9375 211.195 18.4102 211.43 18.8008C211.672 19.1836 211.992 19.4766 212.391 19.6797C212.789 19.8828 213.25 19.9844 213.773 19.9844C214.25 19.9844 214.66 19.9023 215.004 19.7383C215.348 19.5664 215.633 19.3242 215.859 19.0117C216.094 18.6914 216.266 18.3164 216.375 17.8867C216.492 17.457 216.551 16.9805 216.551 16.457C216.551 15.957 216.484 15.5 216.352 15.0859C216.227 14.6719 216.035 14.3125 215.777 14.0078C215.527 13.7031 215.211 13.4688 214.828 13.3047C214.445 13.1328 214.004 13.0469 213.504 13.0469C212.832 13.0469 212.316 13.1445 211.957 13.3398C211.605 13.5352 211.277 13.7773 210.973 14.0664ZM223.922 19.7734H224.156C225.234 19.7734 226.133 19.6328 226.852 19.3516C227.578 19.0625 228.156 18.6641 228.586 18.1562C229.016 17.6484 229.324 17.0508 229.512 16.3633C229.699 15.6758 229.793 14.9297 229.793 14.125V11.1836C229.793 10.4883 229.719 9.87891 229.57 9.35547C229.43 8.82422 229.227 8.38281 228.961 8.03125C228.703 7.67187 228.402 7.40234 228.059 7.22266C227.723 7.04297 227.359 6.95312 226.969 6.95312C226.539 6.95312 226.152 7.05078 225.809 7.24609C225.473 7.43359 225.188 7.69531 224.953 8.03125C224.727 8.35938 224.551 8.74609 224.426 9.19141C224.309 9.62891 224.25 10.0977 224.25 10.5977C224.25 11.0664 224.305 11.5195 224.414 11.957C224.531 12.3867 224.703 12.7695 224.93 13.1055C225.156 13.4414 225.441 13.707 225.785 13.9023C226.129 14.0977 226.531 14.1953 226.992 14.1953C227.43 14.1953 227.832 14.1133 228.199 13.9492C228.566 13.7773 228.887 13.5469 229.16 13.2578C229.434 12.9688 229.648 12.6445 229.805 12.2852C229.961 11.9258 230.047 11.5586 230.062 11.1836L231.141 11.5117C231.141 12.1055 231.016 12.6914 230.766 13.2695C230.523 13.8398 230.184 14.3633 229.746 14.8398C229.316 15.3086 228.812 15.6836 228.234 15.9648C227.664 16.2461 227.043 16.3867 226.371 16.3867C225.559 16.3867 224.84 16.2344 224.215 15.9297C223.598 15.6172 223.082 15.1953 222.668 14.6641C222.262 14.1328 221.957 13.5234 221.754 12.8359C221.551 12.1484 221.449 11.4258 221.449 10.668C221.449 9.84766 221.574 9.07812 221.824 8.35938C222.074 7.64063 222.438 7.00781 222.914 6.46094C223.391 5.90625 223.969 5.47656 224.648 5.17188C225.336 4.85937 226.113 4.70312 226.98 4.70312C227.902 4.70312 228.711 4.88281 229.406 5.24219C230.102 5.60156 230.688 6.09766 231.164 6.73047C231.641 7.36328 232 8.09766 232.242 8.93359C232.484 9.76953 232.605 10.668 232.605 11.6289V12.625C232.605 13.6328 232.516 14.6055 232.336 15.543C232.156 16.4727 231.863 17.3359 231.457 18.1328C231.059 18.9219 230.531 19.6172 229.875 20.2188C229.227 20.8125 228.43 21.2773 227.484 21.6133C226.547 21.9414 225.445 22.1055 224.18 22.1055H223.922V19.7734Z" fill="#838383"/>
</svg>
