<svg width="34" height="34" viewBox="0 0 34 34" fill="none" xmlns="http://www.w3.org/2000/svg">
<path fill-rule="evenodd" clip-rule="evenodd" d="M33.6673 17C33.6673 26.2041 26.2048 33.6666 17.0007 33.6666C7.79648 33.6666 0.333984 26.2041 0.333984 17C0.333984 7.79581 7.79648 0.333313 17.0007 0.333313C26.2048 0.333313 33.6673 7.79581 33.6673 17ZM17.5979 12.6375C15.977 13.3111 12.7368 14.7069 7.87843 16.8236C7.08954 17.1375 6.67565 17.4444 6.63815 17.7444C6.57426 18.2528 7.21037 18.4528 8.07426 18.7236C8.19232 18.7611 8.31454 18.7986 8.43954 18.8403C9.29093 19.1166 10.4354 19.4403 11.0298 19.4528C11.5701 19.4639 12.1729 19.2416 12.8382 18.7861C17.377 15.7208 19.7201 14.1722 19.8673 14.1389C19.9715 14.1153 20.1159 14.0847 20.2132 14.1722C20.3104 14.2583 20.3007 14.4222 20.2909 14.4666C20.227 14.7347 17.7354 17.0528 16.4437 18.2528C16.0409 18.6264 15.7562 18.8916 15.6979 18.9528C15.5673 19.0875 15.434 19.2166 15.3062 19.3403C14.5145 20.1014 13.9229 20.6736 15.3395 21.6069C16.0201 22.0555 16.5645 22.4264 17.1076 22.7958C17.7007 23.2 18.2923 23.6028 19.059 24.1055C19.2534 24.2333 19.4395 24.3653 19.6215 24.4944C20.3118 24.9875 20.9326 25.4291 21.6993 25.3597C22.1437 25.318 22.6048 24.9 22.8382 23.6514C23.3895 20.6986 24.4757 14.3041 24.727 11.668C24.7423 11.4492 24.733 11.2293 24.6993 11.0125C24.6791 10.8374 24.5938 10.6763 24.4604 10.5611C24.2618 10.3986 23.9534 10.3639 23.8145 10.3666C23.1882 10.3778 22.227 10.7125 17.5979 12.6375Z" fill="#838383"/>
</svg>
