<svg width="144" height="20" viewBox="0 0 144 20" fill="none" xmlns="http://www.w3.org/2000/svg">
<path fill-rule="evenodd" clip-rule="evenodd" d="M11.2029 17.6109L13.0701 15.7437L11.6185 14.4623C8.99351 11.8373 8.99351 7.58126 11.6185 4.95624C14.2436 2.33121 18.4996 2.33121 21.1246 4.95624L30.6307 14.4623L32.7431 12.3498L23.2371 2.84378C19.4454 -0.947927 13.2978 -0.947927 9.50608 2.84378C5.71437 6.63549 5.71437 12.7831 9.50608 16.5748L11.2029 17.6109Z" fill="black"/>
<path fill-rule="evenodd" clip-rule="evenodd" d="M22.406 2.30011L20.5388 4.16728L21.1246 4.95624C23.7496 7.58126 23.7496 11.8373 21.1246 14.4623C18.4996 17.0873 14.2436 17.0873 11.6185 14.4623L2.11246 4.95624L0 7.06869L9.50608 16.5748C13.2978 20.3665 19.4453 20.3665 23.237 16.5748C27.0288 12.7831 27.0288 6.63549 23.2371 2.84378L22.406 2.30011Z" fill="black"/>
<path d="M46.53 11.6901C46.69 11.6901 46.835 11.6551 46.965 11.5851V12.8151C46.745 12.9751 46.43 13.0551 46.02 13.0551C45.18 13.0551 44.665 12.7051 44.475 12.0051C43.805 12.7651 42.9 13.1451 41.76 13.1451C40.97 13.1451 40.31 12.9251 39.78 12.4851C39.26 12.0551 39 11.4501 39 10.6701C39 9.89012 39.285 9.29012 39.855 8.87012C40.415 8.44011 41.115 8.22512 41.955 8.22512C42.845 8.22512 43.63 8.41512 44.31 8.79512V8.39012C44.31 7.32012 43.59 6.78512 42.15 6.78512C41.31 6.78512 40.535 7.00512 39.825 7.44512V6.02012C40.555 5.60012 41.45 5.39012 42.51 5.39012C43.55 5.39012 44.375 5.64012 44.985 6.14012C45.605 6.63012 45.915 7.32012 45.915 8.21012V10.9551C45.915 11.1851 45.97 11.3651 46.08 11.4951C46.2 11.6251 46.35 11.6901 46.53 11.6901ZM44.31 10.8651V9.96512C43.69 9.61512 43.035 9.44012 42.345 9.44012C41.805 9.44012 41.38 9.54012 41.07 9.74012C40.77 9.94012 40.62 10.2201 40.62 10.5801C40.62 10.9601 40.76 11.2501 41.04 11.4501C41.33 11.6501 41.72 11.7501 42.21 11.7501C42.61 11.7501 43 11.6701 43.38 11.5101C43.76 11.3401 44.07 11.1251 44.31 10.8651Z" fill="black"/>
<path d="M49.1837 10.9401V7.01012H47.6087V5.58512H49.1837V3.44012H50.8037V5.58512H53.1287V7.01012H50.8037V10.4751C50.8037 10.8851 50.8987 11.1851 51.0887 11.3751C51.2787 11.5651 51.5687 11.6601 51.9587 11.6601C52.3487 11.6601 52.7187 11.5701 53.0687 11.3901V12.7851C52.7187 13.0251 52.1737 13.1451 51.4337 13.1451C50.7337 13.1451 50.1837 12.9551 49.7837 12.5751C49.3837 12.1951 49.1837 11.6501 49.1837 10.9401Z" fill="black"/>
<path d="M56.5719 12.9501H54.9519V5.58512H56.5719V6.54512C57.1319 5.77512 57.9419 5.39012 59.0019 5.39012C59.5719 5.39012 60.0619 5.51012 60.4719 5.75012C60.8819 5.99012 61.1669 6.31012 61.3269 6.71012C61.5969 6.31012 61.9669 5.99012 62.4369 5.75012C62.9169 5.51012 63.4419 5.39012 64.0119 5.39012C64.8319 5.39012 65.4719 5.64512 65.9319 6.15512C66.3919 6.66512 66.6219 7.39512 66.6219 8.34512V12.9501H65.0019V8.72012C65.0019 7.51012 64.5019 6.90512 63.5019 6.90512C63.1119 6.90512 62.7369 7.02512 62.3769 7.26512C62.0269 7.49512 61.7719 7.78512 61.6119 8.13512V12.9501H59.9919V8.72012C59.9919 7.51012 59.4869 6.90512 58.4769 6.90512C58.0969 6.90512 57.7269 7.02012 57.3669 7.25012C57.0169 7.47012 56.7519 7.75012 56.5719 8.09012V12.9501Z" fill="black"/>
<path d="M72.305 11.7201C72.985 11.7201 73.56 11.4851 74.03 11.0151C74.49 10.5551 74.72 9.97012 74.72 9.26012C74.72 8.56012 74.49 7.98012 74.03 7.52012C73.56 7.05012 72.985 6.81512 72.305 6.81512C71.615 6.81512 71.035 7.05012 70.565 7.52012C70.105 7.98012 69.875 8.56012 69.875 9.26012C69.875 9.97012 70.105 10.5551 70.565 11.0151C71.035 11.4851 71.615 11.7201 72.305 11.7201ZM72.305 13.1451C71.125 13.1451 70.155 12.7701 69.395 12.0201C68.635 11.2701 68.255 10.3501 68.255 9.26012C68.255 8.18012 68.635 7.26512 69.395 6.51512C70.155 5.76512 71.125 5.39012 72.305 5.39012C73.465 5.39012 74.43 5.76512 75.2 6.51512C75.96 7.26512 76.34 8.18012 76.34 9.26012C76.34 10.3401 75.96 11.2601 75.2 12.0201C74.43 12.7701 73.465 13.1451 72.305 13.1451Z" fill="black"/>
<path d="M80.7507 13.1451C79.4408 13.1451 78.4157 12.8951 77.6757 12.3951V10.8651C78.5357 11.4551 79.5357 11.7501 80.6757 11.7501C81.1857 11.7501 81.5807 11.6751 81.8607 11.5251C82.1507 11.3651 82.2957 11.1501 82.2957 10.8801C82.2957 10.6401 82.1457 10.4451 81.8457 10.2951C81.7157 10.2351 81.4807 10.1601 81.1407 10.0701L80.2257 9.84512C79.3557 9.62512 78.7257 9.34512 78.3357 9.00512C77.9457 8.65512 77.7507 8.17012 77.7507 7.55012C77.7507 6.88012 78.0257 6.35512 78.5757 5.97512C79.1257 5.58512 79.8907 5.39012 80.8707 5.39012C82.0007 5.39012 82.9057 5.61012 83.5857 6.05012V7.53512C82.6957 7.03512 81.8107 6.78512 80.9307 6.78512C80.4407 6.78512 80.0657 6.86012 79.8057 7.01012C79.5457 7.15012 79.4157 7.34512 79.4157 7.59512C79.4157 7.82512 79.5707 8.02012 79.8807 8.18012C79.9207 8.20012 80.1557 8.27512 80.5857 8.40512L81.4407 8.58512C83.1207 8.95512 83.9607 9.73012 83.9607 10.9101C83.9607 11.5801 83.6657 12.1201 83.0757 12.5301C82.4857 12.9401 81.7107 13.1451 80.7507 13.1451Z" fill="black"/>
<path d="M87.9915 7.01012V12.9501H86.3715V7.01012H84.9915V5.58512H86.3715V4.62512C86.3715 3.91512 86.5715 3.35012 86.9715 2.93012C87.3715 2.51012 87.9415 2.30012 88.6815 2.30012C89.3215 2.30012 89.8965 2.40512 90.4065 2.61512V3.98012C89.9365 3.80012 89.5115 3.71012 89.1315 3.71012C88.3715 3.71012 87.9915 4.11012 87.9915 4.91012V5.58512H90.4065V7.01012H87.9915Z" fill="black"/>
<path d="M91.2091 9.26012C91.2091 8.15012 91.5591 7.23012 92.2591 6.50012C92.9691 5.76012 93.8791 5.39012 94.9891 5.39012C95.7491 5.39012 96.3941 5.59012 96.9241 5.99012C97.9641 6.73012 98.4841 7.84012 98.4841 9.32012V9.74012H92.8441C92.9441 10.3601 93.2391 10.8451 93.7291 11.1951C94.2291 11.5451 94.8591 11.7201 95.6191 11.7201C96.4591 11.7201 97.2491 11.5001 97.9891 11.0601V12.4251C97.3091 12.9051 96.4041 13.1451 95.2741 13.1451C94.1441 13.1451 93.1791 12.7851 92.3791 12.0651C91.5991 11.3451 91.2091 10.4101 91.2091 9.26012ZM92.8591 8.51012H96.8491C96.8291 8.05012 96.6541 7.64512 96.3241 7.29512C95.9841 6.93512 95.5141 6.75512 94.9141 6.75512C94.3441 6.75512 93.8691 6.92512 93.4891 7.26512C93.1191 7.59512 92.9091 8.01012 92.8591 8.51012Z" fill="black"/>
<path d="M101.938 12.9501H100.318V5.58512H101.938V6.86012C102.188 6.43012 102.563 6.08012 103.063 5.81012C103.563 5.53012 104.093 5.39012 104.653 5.39012C104.723 5.39012 104.773 5.39512 104.803 5.40512V7.02512C104.623 7.00512 104.473 6.99512 104.353 6.99512C103.803 6.99512 103.308 7.13512 102.868 7.41512C102.428 7.69512 102.118 8.03512 101.938 8.43512V12.9501Z" fill="black"/>
<path d="M113.195 11.6901C113.355 11.6901 113.5 11.6551 113.63 11.5851V12.8151C113.41 12.9751 113.095 13.0551 112.685 13.0551C111.845 13.0551 111.33 12.7051 111.14 12.0051C110.47 12.7651 109.565 13.1451 108.425 13.1451C107.635 13.1451 106.975 12.9251 106.445 12.4851C105.925 12.0551 105.665 11.4501 105.665 10.6701C105.665 9.89012 105.95 9.29012 106.52 8.87012C107.08 8.44011 107.78 8.22512 108.62 8.22512C109.51 8.22512 110.295 8.41512 110.975 8.79512V8.39012C110.975 7.32012 110.255 6.78512 108.815 6.78512C107.975 6.78512 107.2 7.00512 106.49 7.44512V6.02012C107.22 5.60012 108.115 5.39012 109.175 5.39012C110.215 5.39012 111.04 5.64012 111.65 6.14012C112.27 6.63012 112.58 7.32012 112.58 8.21012V10.9551C112.58 11.1851 112.635 11.3651 112.745 11.4951C112.865 11.6251 113.015 11.6901 113.195 11.6901ZM110.975 10.8651V9.96512C110.355 9.61512 109.7 9.44012 109.01 9.44012C108.47 9.44012 108.045 9.54012 107.735 9.74012C107.435 9.94012 107.285 10.2201 107.285 10.5801C107.285 10.9601 107.425 11.2501 107.705 11.4501C107.995 11.6501 108.385 11.7501 108.875 11.7501C109.275 11.7501 109.665 11.6701 110.045 11.5101C110.425 11.3401 110.735 11.1251 110.975 10.8651Z" fill="black"/>
<path d="M115.965 13.0701C115.665 13.0701 115.41 12.9701 115.2 12.7701C115 12.5601 114.9 12.3051 114.9 12.0051C114.9 11.7151 115 11.4701 115.2 11.2701C115.41 11.0601 115.665 10.9551 115.965 10.9551C116.245 10.9551 116.49 11.0601 116.7 11.2701C116.91 11.4701 117.015 11.7151 117.015 12.0051C117.015 12.3051 116.91 12.5601 116.7 12.7701C116.5 12.9701 116.255 13.0701 115.965 13.0701Z" fill="black"/>
<path d="M121.605 13.1451C120.295 13.1451 119.27 12.8951 118.53 12.3951V10.8651C119.39 11.4551 120.39 11.7501 121.53 11.7501C122.04 11.7501 122.435 11.6751 122.715 11.5251C123.005 11.3651 123.15 11.1501 123.15 10.8801C123.15 10.6401 123 10.4451 122.7 10.2951C122.57 10.2351 122.335 10.1601 121.995 10.0701L121.08 9.84512C120.21 9.62512 119.58 9.34512 119.19 9.00512C118.8 8.65512 118.605 8.17012 118.605 7.55012C118.605 6.88012 118.88 6.35512 119.43 5.97512C119.98 5.58512 120.745 5.39012 121.725 5.39012C122.855 5.39012 123.76 5.61012 124.44 6.05012V7.53512C123.55 7.03512 122.665 6.78512 121.785 6.78512C121.295 6.78512 120.92 6.86012 120.66 7.01012C120.4 7.15012 120.27 7.34512 120.27 7.59512C120.27 7.82512 120.425 8.02012 120.735 8.18012C120.775 8.20012 121.01 8.27512 121.44 8.40512L122.295 8.58512C123.975 8.95512 124.815 9.73012 124.815 10.9101C124.815 11.5801 124.52 12.1201 123.93 12.5301C123.34 12.9401 122.565 13.1451 121.605 13.1451Z" fill="black"/>
<path d="M130.901 5.39012C131.941 5.39012 132.796 5.76512 133.466 6.51512C134.136 7.25512 134.471 8.17512 134.471 9.27512C134.471 10.3651 134.136 11.2801 133.466 12.0201C132.796 12.7701 131.941 13.1451 130.901 13.1451C129.771 13.1451 128.896 12.7451 128.276 11.9451V15.9501H126.656V5.58512H128.276V6.59012C128.896 5.79012 129.771 5.39012 130.901 5.39012ZM130.466 6.81512C129.996 6.81512 129.566 6.94012 129.176 7.19012C128.786 7.43012 128.486 7.74512 128.276 8.13512V10.4151C128.486 10.7951 128.786 11.1101 129.176 11.3601C129.576 11.6001 130.006 11.7201 130.466 11.7201C131.146 11.7201 131.711 11.4851 132.161 11.0151C132.611 10.5351 132.836 9.95512 132.836 9.27512C132.836 8.58512 132.611 8.00512 132.161 7.53512C131.711 7.05512 131.146 6.81512 130.466 6.81512Z" fill="black"/>
<path d="M143.166 11.6901C143.326 11.6901 143.471 11.6551 143.601 11.5851V12.8151C143.381 12.9751 143.066 13.0551 142.656 13.0551C141.816 13.0551 141.301 12.7051 141.111 12.0051C140.441 12.7651 139.536 13.1451 138.396 13.1451C137.606 13.1451 136.946 12.9251 136.416 12.4851C135.896 12.0551 135.636 11.4501 135.636 10.6701C135.636 9.89012 135.921 9.29012 136.491 8.87012C137.051 8.44011 137.751 8.22512 138.591 8.22512C139.481 8.22512 140.266 8.41512 140.946 8.79512V8.39012C140.946 7.32012 140.226 6.78512 138.786 6.78512C137.946 6.78512 137.171 7.00512 136.461 7.44512V6.02012C137.191 5.60012 138.086 5.39012 139.146 5.39012C140.186 5.39012 141.011 5.64012 141.621 6.14012C142.241 6.63012 142.551 7.32012 142.551 8.21012V10.9551C142.551 11.1851 142.606 11.3651 142.716 11.4951C142.836 11.6251 142.986 11.6901 143.166 11.6901ZM140.946 10.8651V9.96512C140.326 9.61512 139.671 9.44012 138.981 9.44012C138.441 9.44012 138.016 9.54012 137.706 9.74012C137.406 9.94012 137.256 10.2201 137.256 10.5801C137.256 10.9601 137.396 11.2501 137.676 11.4501C137.966 11.6501 138.356 11.7501 138.846 11.7501C139.246 11.7501 139.636 11.6701 140.016 11.5101C140.396 11.3401 140.706 11.1251 140.946 10.8651Z" fill="black"/>
</svg>
